<svg
  viewBox="0 0 561 561"
  role="img"
  xmlns="http://www.w3.org/2000/svg"
  xmlns:svg="http://www.w3.org/2000/svg"
  version="1.1"
>
   <title>Espruino</title>
   <g class="layer">
      <path
         d="m0,0c5.98,4.87 10.84,11.14 15.82,17c2.59,3.04 5.23,6.01 7.93,8.96c2.98,3.29 5.83,6.66 8.62,10.13c3.68,4.55 7.55,8.86 11.54,13.14c3.78,4.09 7.28,8.36 10.77,12.7c2.52,3.02 5.14,5.91 7.82,8.78c3.51,3.78 6.88,7.61 10.12,11.63c0.73,0.88 1.46,1.76 2.21,2.68c1.48,1.84 2.91,3.72 4.3,5.64c1.08,1.38 1.08,1.38 2.18,2.8c0.61,0.84 1.23,1.68 1.86,2.55c4.77,2.87 9.49,1.5 14.83,0.7c1.29,-0.19 2.58,-0.37 3.91,-0.57c5.04,-0.74 10.06,-1.53 15.09,-2.35c29.68,-4.8 29.68,-4.8 42.68,3.67c8.36,8.13 8.36,8.13 10.27,12.38c1.33,2.37 2.64,2.69 5.05,3.87c1.63,1.95 1.63,1.95 3.12,4.25c0.75,1.12 0.75,1.12 1.51,2.27c3.69,6.71 3.64,12.84 3.6,20.33c0,1.77 0,1.77 0,3.58c-0.01,3.88 -0.03,7.75 -0.05,11.63c0,1.34 -0.01,2.68 -0.01,4.02c-0.03,7.58 -0.07,15.17 -0.13,22.76c-0.03,4.66 -0.06,9.32 -0.09,13.98c-0.03,6.09 -0.09,12.17 -0.16,18.26c-0.03,2.26 -0.05,4.52 -0.06,6.79c-0.11,15.85 -0.48,29.75 -11.73,42.13c-11,9.75 -22.65,12.64 -36.75,14.87c-2.45,0.38 -4.89,0.79 -7.33,1.19c-1.57,0.26 -3.14,0.51 -4.72,0.77c-0.72,0.12 -1.44,0.24 -2.18,0.36c-4.41,0.69 -8.58,0.92 -13.02,0.81c-0.18,7.1 -0.3,14.2 -0.39,21.3c-0.03,2.41 -0.08,4.82 -0.14,7.23c-0.09,3.48 -0.13,6.96 -0.16,10.44c-0.03,1.06 -0.07,2.13 -0.11,3.24c0,7.03 1.38,10.67 6.25,15.8c1.83,2.35 2.02,3.61 1.98,6.55c-0.14,1.14 -0.29,2.27 -0.43,3.44c0.99,-0.21 1.98,-0.41 3,-0.62c3.05,-0.04 3.87,0.5 6.1,2.67c2.05,2.6 3.98,5.25 5.9,7.95c0.69,0.71 1.38,1.43 2.09,2.16c2.47,3.68 2.42,6.72 2.3,10.99c-0.01,0.77 -0.01,1.54 -0.02,2.33c-0.02,2.44 -0.07,4.89 -0.12,7.33c-0.02,1.67 -0.04,3.33 -0.06,4.99c-0.04,4.07 -0.11,8.14 -0.19,12.2c-3.38,0.68 -6.75,1.34 -10.13,2c-1.43,0.29 -1.43,0.29 -2.88,0.58c-4.73,0.92 -9.15,1.68 -13.99,1.42c-0.19,0.7 -0.38,1.4 -0.57,2.13c-3.41,6.81 -9.38,9.6 -16.3,12.11c-4.29,1.04 -8.74,1.32 -13.13,1.76c0,12.21 0,24.42 0,37c-5.53,1.01 -11.06,2.02 -16.75,3.06c-1.74,0.33 -3.48,0.65 -5.27,0.98c-1.39,0.25 -2.77,0.5 -4.16,0.75c-1.07,0.2 -1.07,0.2 -2.16,0.4c-6.82,1.21 -6.82,1.21 -9.66,-0.19c-1.83,-1.95 -1.83,-1.95 -3.68,-4.47c-0.99,-1.35 -0.99,-1.35 -2.01,-2.73c-0.68,-0.94 -1.36,-1.89 -2.06,-2.86c-0.7,-0.95 -1.4,-1.9 -2.12,-2.88c-1.72,-2.35 -3.43,-4.7 -5.13,-7.06c-0.33,7.92 -0.66,15.84 -1,24c-33.62,6.46 -33.62,6.46 -38,6c-1.82,-1.7 -1.82,-1.7 -3.48,-4.05c-0.91,-1.27 -0.91,-1.27 -1.84,-2.56c-0.62,-0.89 -1.24,-1.78 -1.87,-2.7c-0.63,-0.88 -1.26,-1.76 -1.91,-2.67c-2.35,-3.31 -4.65,-6.64 -6.9,-10.02c-0.33,8.25 -0.66,16.5 -1,25c-6.73,1.68 -13.31,3 -20.13,4.13c-1.06,0.18 -2.12,0.36 -3.21,0.55c-1.02,0.17 -2.05,0.34 -3.11,0.52c-0.92,0.15 -1.85,0.31 -2.8,0.47c-3.02,0.36 -5.72,0.63 -8.75,0.33c-1.81,-1.56 -1.81,-1.56 -3.29,-3.73c-0.55,-0.78 -1.1,-1.57 -1.67,-2.37c-0.55,-0.84 -1.1,-1.67 -1.67,-2.52c-0.84,-1.22 -0.84,-1.22 -1.69,-2.45c-1.59,-2.3 -3.14,-4.61 -4.68,-6.93c-1.32,-1.98 -2.64,-3.96 -4,-6c0,8.91 0,17.82 0,27c-4.96,1.42 -9.43,2.49 -14.47,3.29c-0.68,0.11 -1.36,0.22 -2.05,0.33c-2.14,0.34 -4.28,0.67 -6.42,1.01c-1.46,0.23 -2.92,0.46 -4.39,0.69c-3.55,0.57 -7.11,1.12 -10.67,1.68c-2.27,-3.24 -4.53,-6.48 -6.78,-9.72c-1.15,-1.64 -2.3,-3.28 -3.45,-4.93c-1.08,-1.54 -1.08,-1.54 -2.18,-3.12c-0.66,-0.96 -1.33,-1.91 -2.01,-2.89c-1.58,-2.34 -1.58,-2.34 -2.58,-4.34c-0.33,9.24 -0.66,18.48 -1,28c-4.93,0.86 -9.86,1.71 -14.79,2.56c-1.68,0.29 -3.36,0.59 -5.03,0.88c-2.41,0.42 -4.82,0.83 -7.23,1.25c-0.75,0.13 -1.5,0.26 -2.28,0.4c-2.93,0.5 -5.69,0.91 -8.67,0.91c-1.73,-2.09 -1.73,-2.09 -3.62,-5c-0.69,-1.05 -1.38,-2.11 -2.09,-3.19c-0.72,-1.12 -1.45,-2.25 -2.17,-3.37c-1.41,-2.17 -2.83,-4.34 -4.24,-6.51c-0.67,-1.02 -1.33,-2.05 -2.02,-3.11c-1.57,-2.37 -3.19,-4.68 -4.87,-6.97c-1.99,-2.85 -1.99,-2.85 -1.99,-4.85c-0.76,0.15 -1.51,0.29 -2.29,0.44c-8.99,1.57 -17.62,1.77 -26.71,1.56c0,-0.33 0,-0.66 0,-1c-2.21,-0.48 -4.42,-0.96 -6.63,-1.44c-1.23,-0.26 -2.46,-0.53 -3.73,-0.81c-1.8,-0.37 -1.8,-0.37 -3.64,-0.75c-0.84,-0.21 -1.67,-0.43 -2.53,-0.65c-5.06,-0.51 -9.69,0.45 -14.67,1.34c-1.08,0.18 -2.15,0.36 -3.25,0.55c-3.42,0.58 -6.83,1.17 -10.24,1.76c-3.42,0.59 -6.85,1.18 -10.27,1.76c-2.13,0.37 -4.26,0.73 -6.39,1.11c-0.96,0.16 -1.92,0.33 -2.91,0.49c-0.85,0.15 -1.69,0.3 -2.56,0.45c-2.18,0.19 -2.18,0.19 -5.18,-0.81c-1.99,-2.3 -3.52,-4.92 -5.13,-7.5c-0.45,-0.68 -0.91,-1.37 -1.38,-2.07c-3.28,-5.2 -4.19,-9.29 -4.49,-15.43c-0.72,0.15 -1.43,0.31 -2.17,0.46c-3.33,-0.54 -3.59,-0.99 -5.51,-3.61c-0.9,-1.39 -1.78,-2.8 -2.64,-4.22c-0.44,-0.73 -0.89,-1.46 -1.35,-2.2c-3.19,-5.48 -4.71,-10.06 -3.33,-16.43c-1.98,0.33 -3.96,0.66 -6,1c-11.29,-16.24 -11.29,-16.24 -10.36,-24.37c0.12,-0.54 0.24,-1.08 0.36,-1.63c-1.65,0.33 -3.3,0.66 -5,1c-1.74,-2.46 -3.47,-4.93 -5.18,-7.41c-1.36,-1.93 -2.79,-3.81 -4.26,-5.65c-2.14,-4.03 -1.92,-7.47 -1.56,-11.94c-0.75,0.1 -1.5,0.19 -2.28,0.29c-2.72,-0.29 -2.72,-0.29 -4.64,-2.3c-0.84,-1.33 -0.84,-1.33 -1.71,-2.68c-0.57,-0.87 -1.14,-1.74 -1.73,-2.63c-0.81,-1.33 -0.81,-1.33 -1.64,-2.68c-0.55,-0.81 -1.1,-1.62 -1.67,-2.46c-5.18,-9.88 -2.44,-26.58 -2.33,-37.54c4.25,-0.67 8.5,-1.34 12.75,-2c1.81,-0.29 1.81,-0.29 3.65,-0.58c1.74,-0.27 1.74,-0.27 3.52,-0.54c1.07,-0.17 2.13,-0.34 3.24,-0.51c2.84,-0.37 2.84,-0.37 6.84,-0.37c-0.03,-0.63 -0.05,-1.26 -0.07,-1.9c-2.35,-66.93 -4.7,-133.85 -6.98,-200.77c-0.18,-5.13 -0.35,-10.25 -0.53,-15.37c-0.21,-5.99 -0.41,-11.99 -0.61,-17.98c-0.08,-2.18 -0.15,-4.35 -0.23,-6.53c-0.1,-2.95 -0.2,-5.91 -0.3,-8.86c-0.03,-0.85 -0.06,-1.7 -0.09,-2.57c-0.07,-2.34 -0.14,-4.68 -0.19,-7.02c-0.04,-1.23 -0.04,-1.23 -0.07,-2.5c-0.01,-0.8 -0.02,-1.6 -0.04,-2.43c-0.01,-0.71 -0.02,-1.43 -0.04,-2.17c0.15,-1.9 0.15,-1.9 1.52,-4.65c10.15,-8.7 23.99,-10.36 36.79,-12.12c1.16,-0.17 2.33,-0.33 3.53,-0.5c3.19,-0.45 6.38,-0.9 9.58,-1.34c3.46,-0.49 6.91,-0.98 10.37,-1.46c6.76,-0.96 13.52,-1.9 20.28,-2.85c7.88,-1.1 15.76,-2.21 23.64,-3.32c14.06,-1.98 28.12,-3.95 42.18,-5.92c13.64,-1.91 27.27,-3.82 40.9,-5.74c0.84,-0.12 1.68,-0.23 2.54,-0.36c3.38,-0.47 6.76,-0.95 10.14,-1.42c14.58,-2.05 29.16,-4.1 43.74,-6.15c2.36,-0.33 4.71,-0.66 7.07,-0.99c8.25,-1.16 16.5,-2.32 24.75,-3.47c3.41,-0.48 6.82,-0.96 10.23,-1.44c3.7,-0.51 7.4,-1.03 11.1,-1.55c1.07,-0.15 2.14,-0.3 3.25,-0.46c18.06,-2.52 39.29,-5.33 55.54,5.13zm107,146.71c0,27.39 0,54.78 0,83c9.33,-1.87 16.6,-9.34 22,-17c5.06,-9.33 6.31,-18.88 6.19,-29.38c0,-0.94 0,-1.88 -0.01,-2.85c-0.01,-2.97 -0.03,-5.93 -0.06,-8.89c-0.01,-2.03 -0.02,-4.06 -0.03,-6.08c-0.02,-4.93 -0.05,-9.87 -0.09,-14.8c-1.25,-0.65 -2.5,-1.29 -3.75,-1.94c-0.7,-0.36 -1.4,-0.72 -2.11,-1.09c-3.91,-1.77 -7.31,-2.11 -11.58,-2.09c-0.93,-0.01 -1.86,-0.01 -2.81,-0.01c-3.15,0.08 -3.15,0.08 -7.75,1.13z"
         fill="currentColor"
         id="svg_1"
         transform="translate(378.00390625,34.2890625)"
      />
      <path
         d="m378,34.29c5.98,4.87 10.84,11.14 15.82,17c2.59,3.04 5.23,6.01 7.93,8.96c2.98,3.29 5.83,6.66 8.62,10.13c3.68,4.55 7.55,8.86 11.54,13.14c3.78,4.09 7.28,8.36 10.77,12.7c2.52,3.02 5.14,5.91 7.82,8.78c3.51,3.78 6.88,7.61 10.12,11.63c0.73,0.88 1.46,1.76 2.21,2.68c1.48,1.84 2.91,3.72 4.3,5.64c1.08,1.38 1.08,1.38 2.18,2.8c0.61,0.84 1.23,1.68 1.86,2.55c4.77,2.87 9.49,1.5 14.83,0.7c1.29,-0.19 2.58,-0.37 3.91,-0.57c5.04,-0.74 10.06,-1.53 15.09,-2.35c29.68,-4.8 29.68,-4.8 42.68,3.67c8.36,8.13 8.36,8.13 10.27,12.38c1.33,2.37 2.64,2.69 5.05,3.87c1.63,1.95 1.63,1.95 3.12,4.25c0.75,1.12 0.75,1.12 1.51,2.27c3.69,6.71 3.64,12.84 3.6,20.33c0,1.77 0,1.77 0,3.58c-0.01,3.88 -0.03,7.75 -0.05,11.63c0,1.34 -0.01,2.68 -0.01,4.02c-0.03,7.58 -0.07,15.17 -0.13,22.76c-0.03,4.66 -0.06,9.32 -0.09,13.98c-0.03,6.09 -0.09,12.17 -0.16,18.26c-0.03,2.26 -0.05,4.52 -0.06,6.79c-0.11,15.85 -0.48,29.75 -11.73,42.13c-11,9.75 -22.65,12.64 -36.75,14.87c-2.45,0.38 -4.89,0.79 -7.33,1.19c-1.57,0.26 -3.14,0.51 -4.72,0.77c-0.72,0.12 -1.44,0.24 -2.18,0.36c-4.41,0.69 -8.58,0.92 -13.02,0.81c-0.18,7.1 -0.3,14.2 -0.39,21.3c-0.03,2.41 -0.08,4.82 -0.14,7.23c-0.09,3.48 -0.13,6.96 -0.16,10.44c-0.03,1.06 -0.07,2.13 -0.11,3.24c0,7.03 1.38,10.67 6.25,15.8c1.83,2.35 2.02,3.61 1.98,6.55c-0.14,1.14 -0.29,2.27 -0.43,3.44c0.99,-0.21 1.98,-0.41 3,-0.62c3.05,-0.04 3.87,0.5 6.1,2.67c2.05,2.6 3.98,5.25 5.9,7.95c0.69,0.71 1.38,1.43 2.09,2.16c2.47,3.68 2.42,6.72 2.3,10.99c-0.01,0.77 -0.01,1.54 -0.02,2.33c-0.02,2.44 -0.07,4.89 -0.12,7.33c-0.02,1.67 -0.04,3.33 -0.06,4.99c-0.04,4.07 -0.11,8.14 -0.19,12.2c-3.38,0.68 -6.75,1.34 -10.13,2c-1.43,0.29 -1.43,0.29 -2.88,0.58c-4.73,0.92 -9.15,1.68 -13.99,1.42c-0.19,0.7 -0.38,1.4 -0.57,2.13c-3.41,6.81 -9.38,9.6 -16.3,12.11c-4.29,1.04 -8.74,1.32 -13.13,1.76c0,12.21 0,24.42 0,37c-5.53,1.01 -11.06,2.02 -16.75,3.06c-1.74,0.33 -3.48,0.65 -5.27,0.98c-1.39,0.25 -2.77,0.5 -4.16,0.75c-1.07,0.2 -1.07,0.2 -2.16,0.4c-6.82,1.21 -6.82,1.21 -9.66,-0.19c-1.83,-1.95 -1.83,-1.95 -3.68,-4.47c-0.99,-1.35 -0.99,-1.35 -2.01,-2.73c-0.68,-0.94 -1.36,-1.89 -2.06,-2.86c-0.7,-0.95 -1.4,-1.9 -2.12,-2.88c-1.72,-2.35 -3.43,-4.7 -5.13,-7.06c-0.33,7.92 -0.66,15.84 -1,24c-33.62,6.46 -33.62,6.46 -38,6c-1.82,-1.7 -1.82,-1.7 -3.48,-4.05c-0.91,-1.27 -0.91,-1.27 -1.84,-2.56c-0.62,-0.89 -1.24,-1.78 -1.87,-2.7c-0.63,-0.88 -1.26,-1.76 -1.91,-2.67c-2.35,-3.31 -4.65,-6.64 -6.9,-10.02c-0.33,8.25 -0.66,16.5 -1,25c-6.73,1.68 -13.31,3 -20.13,4.13c-1.06,0.18 -2.12,0.36 -3.21,0.55c-1.02,0.17 -2.05,0.34 -3.11,0.52c-0.92,0.15 -1.85,0.31 -2.8,0.47c-3.02,0.36 -5.72,0.63 -8.75,0.33c-1.81,-1.56 -1.81,-1.56 -3.29,-3.73c-0.55,-0.78 -1.1,-1.57 -1.67,-2.37c-0.55,-0.84 -1.1,-1.67 -1.67,-2.52c-0.84,-1.22 -0.84,-1.22 -1.69,-2.45c-1.59,-2.3 -3.14,-4.61 -4.68,-6.93c-1.32,-1.98 -2.64,-3.96 -4,-6c0,8.91 0,17.82 0,27c-4.96,1.42 -9.43,2.49 -14.47,3.29c-0.68,0.11 -1.36,0.22 -2.05,0.33c-2.14,0.34 -4.28,0.67 -6.42,1.01c-1.46,0.23 -2.92,0.46 -4.39,0.69c-3.55,0.57 -7.11,1.12 -10.67,1.68c-2.27,-3.24 -4.53,-6.48 -6.78,-9.72c-1.15,-1.64 -2.3,-3.28 -3.45,-4.93c-1.08,-1.54 -1.08,-1.54 -2.18,-3.12c-0.66,-0.96 -1.33,-1.91 -2.01,-2.89c-1.58,-2.34 -1.58,-2.34 -2.58,-4.34c-0.33,9.24 -0.66,18.48 -1,28c-4.93,0.86 -9.86,1.71 -14.79,2.56c-1.68,0.29 -3.36,0.59 -5.03,0.88c-2.41,0.42 -4.82,0.83 -7.23,1.25c-0.75,0.13 -1.5,0.26 -2.28,0.4c-2.93,0.5 -5.69,0.91 -8.67,0.91c-1.73,-2.09 -1.73,-2.09 -3.62,-5c-0.69,-1.05 -1.38,-2.11 -2.09,-3.19c-0.72,-1.12 -1.45,-2.25 -2.17,-3.37c-1.41,-2.17 -2.83,-4.34 -4.24,-6.51c-0.67,-1.02 -1.33,-2.05 -2.02,-3.11c-1.57,-2.37 -3.19,-4.68 -4.87,-6.97c-1.99,-2.85 -1.99,-2.85 -1.99,-4.85c-0.85,0.15 -1.7,0.29 -2.57,0.44c-6.22,1.02 -12.12,1.81 -18.43,1.56c0,-0.33 0,-0.66 0,-1c10.36,-1.69 20.52,-2.48 31,-3c0,-5.61 0,-11.22 0,-17c12.18,-3.2 24.5,-4.57 37,-6c1.5,2.12 3,4.25 4.5,6.38c0.64,0.9 0.64,0.9 1.3,1.82c3.2,4.57 3.2,4.57 3.2,6.8c2.97,-0.33 5.94,-0.66 9,-1c0,-5.94 0,-11.88 0,-18c1.4,-0.19 2.8,-0.39 4.24,-0.58c1.88,-0.27 3.75,-0.53 5.63,-0.79c1.38,-0.19 1.38,-0.19 2.78,-0.39c4.59,-0.64 9.13,-1.38 13.67,-2.34c7.73,-1.52 7.73,-1.52 10.68,-0.9c2.36,2.91 4.18,5.79 6.03,9.02c0.4,0.64 0.8,1.27 1.21,1.92c0.34,0.58 0.68,1.17 1.03,1.78c2.44,2.08 2.44,2.08 9.73,1.28c0,-5.94 0,-11.88 0,-18c4.29,-0.65 8.58,-1.29 12.87,-1.94c1.21,-0.18 2.41,-0.36 3.65,-0.55c2.38,-0.35 4.76,-0.7 7.14,-1.03c2.09,-0.3 4.18,-0.64 6.25,-1.05c6.12,-1.06 6.12,-1.06 8.79,0.68c1.53,1.65 2.72,3.31 3.92,5.2c0.43,0.61 0.86,1.22 1.31,1.85c3.07,4.41 3.07,4.41 3.07,6.84c2.64,-0.33 5.28,-0.66 8,-1c0,-5.94 0,-11.88 0,-18c4.29,-0.65 8.58,-1.29 12.87,-1.94c1.21,-0.18 2.41,-0.36 3.65,-0.55c2.38,-0.35 4.76,-0.7 7.14,-1.03c2.09,-0.3 4.18,-0.64 6.25,-1.05c6.12,-1.06 6.12,-1.06 8.79,0.68c1.53,1.65 2.72,3.31 3.92,5.2c0.43,0.61 0.86,1.22 1.31,1.85c3.07,4.41 3.07,4.41 3.07,6.84c0.66,-0.33 1.32,-0.66 2,-1c1.98,0 3.96,0 6,0c0,-5.94 0,-11.88 0,-18c4.62,-0.74 9.25,-1.47 13.88,-2.19c1.57,-0.25 3.14,-0.5 4.72,-0.75c2.26,-0.36 4.52,-0.71 6.79,-1.06c0.7,-0.12 1.4,-0.23 2.12,-0.35c6.47,-0.98 6.47,-0.98 9.49,0.35c1.89,2.16 3.57,4.25 5.25,6.56c0.45,0.62 0.91,1.23 1.39,1.87c1.13,1.52 2.24,3.04 3.36,4.57c1.33,-0.46 1.33,-0.46 2.68,-0.94c2.79,-0.89 5.45,-1.52 8.32,-2.06c0.6,-45.03 1.08,-90.05 1.31,-135.08c0.01,-1.04 0.01,-2.08 0.02,-3.15c0.06,-12.66 0.12,-25.31 0.18,-37.96c0.05,-10.93 0.11,-21.86 0.16,-32.8c0.11,-22.33 0.22,-44.67 0.33,-67.01c-0.91,0.17 -1.82,0.34 -2.75,0.51c-13.89,2.53 -27.84,4.59 -41.79,6.67c-2.75,0.41 -5.5,0.83 -8.26,1.24c-5.89,0.88 -11.78,1.76 -17.67,2.65c-8.53,1.27 -17.05,2.55 -25.58,3.83c-13.84,2.07 -27.69,4.14 -41.54,6.22c-13.42,2.01 -26.84,4.02 -40.27,6.03c-0.82,0.12 -1.65,0.24 -2.51,0.37c-9.04,1.36 -18.09,2.71 -27.14,4.07c-2.39,0.36 -4.79,0.72 -7.19,1.08c-1.58,0.23 -3.16,0.47 -4.75,0.71c-9.29,1.39 -18.58,2.78 -27.87,4.17c-5.82,0.87 -11.64,1.74 -17.46,2.62c-3.36,0.5 -6.72,1 -10.07,1.5c-3.64,0.55 -7.28,1.09 -10.92,1.64c-1.06,0.15 -2.12,0.31 -3.21,0.48c-3.85,0.57 -7.7,1.16 -11.54,1.81c-15.15,2.46 -36.01,2.74 -49.61,-5.22c-6.52,-5.08 -10.76,-12.25 -15.3,-19.05c-2.58,-3.82 -5.3,-7.54 -8.01,-11.27c-1.09,-1.5 -2.18,-3.01 -3.27,-4.52c-1.1,-1.51 -2.2,-3.03 -3.29,-4.54c-6.89,-9.49 -13.73,-19.01 -20.48,-28.6c-4.22,-5.99 -8.51,-11.94 -12.81,-17.88c-3.25,-4.49 -6.49,-9 -9.71,-13.52c-5.03,-7.06 -10.11,-14.08 -15.19,-21.11c-0.53,-0.73 -1.05,-1.46 -1.6,-2.21c-0.4,-0.55 -0.8,-1.11 -1.21,-1.68c-0.34,23.66 0.57,47.28 1.41,70.92c0.2,5.68 0.39,11.35 0.59,17.03c0.49,14.39 0.99,28.79 1.5,43.18c0.54,15.55 1.08,31.1 1.61,46.66c0.2,5.62 0.39,11.25 0.59,16.87c1.59,44.81 1.59,44.81 1.3,65.34c0.78,-0.05 1.56,-0.09 2.36,-0.14c2.64,0.14 2.64,0.14 4.8,2.44c0.67,1 1.34,1.99 2.02,3.01c0.68,0.99 1.35,1.98 2.05,2.99c0.58,0.89 1.16,1.78 1.77,2.7c0.66,0.99 1.32,1.98 2,3c0.19,2.48 0.19,2.48 0.12,5.19c-0.02,0.9 -0.04,1.8 -0.05,2.73c-0.03,0.69 -0.05,1.37 -0.07,2.08c0.88,-0.13 1.75,-0.26 2.66,-0.4c3.34,0.4 3.34,0.4 6.11,3.11c0.89,1.2 1.76,2.43 2.6,3.67c0.44,0.63 0.89,1.26 1.34,1.91c3.08,4.68 4.28,8.33 3.64,14.02c-0.12,0.56 -0.23,1.11 -0.35,1.69c0.88,-0.14 1.75,-0.28 2.66,-0.43c3.66,0.47 3.95,0.65 6.11,3.36c0.89,1.3 1.76,2.61 2.6,3.95c0.44,0.67 0.89,1.35 1.34,2.05c3.28,5.34 4.61,9.8 3.29,16.07c0.91,-0.1 1.82,-0.19 2.77,-0.29c3.23,0.29 3.23,0.29 5.24,2.3c0.83,1.33 0.83,1.33 1.67,2.68c0.84,1.3 0.84,1.3 1.7,2.64c0.8,1.32 0.8,1.32 1.62,2.67c0.55,0.83 1.09,1.65 1.66,2.5c1.47,2.75 1.82,4.72 2.02,7.81c0.07,0.89 0.14,1.77 0.2,2.68c0.06,1 0.06,1 0.12,2.01c0.88,-0.13 1.76,-0.26 2.66,-0.4c3.34,0.4 3.34,0.4 6.07,3.05c0.89,1.22 1.75,2.46 2.58,3.73c0.67,1 0.67,1 1.35,2.01c3.69,6.07 4.01,11.21 3.94,18.17c0.05,6.53 1.97,10.33 6.25,15.36c2.58,2.5 5.01,4.35 8.15,6.08c0,0.33 0,0.66 0,1c-6.93,1.17 -13.85,2.33 -20.77,3.47c-2.36,0.4 -4.72,0.79 -7.07,1.19c-3.38,0.57 -6.77,1.13 -10.15,1.69c-1.59,0.27 -1.59,0.27 -3.2,0.54c-0.98,0.16 -1.96,0.32 -2.98,0.49c-1.29,0.22 -1.29,0.22 -2.61,0.44c-2.22,0.18 -2.22,0.18 -5.22,-0.82c-1.99,-2.3 -3.52,-4.92 -5.13,-7.5c-0.45,-0.68 -0.91,-1.37 -1.38,-2.07c-3.28,-5.2 -4.19,-9.29 -4.49,-15.43c-0.72,0.15 -1.43,0.31 -2.17,0.46c-3.33,-0.54 -3.59,-0.99 -5.51,-3.61c-0.9,-1.39 -1.78,-2.8 -2.64,-4.22c-0.44,-0.73 -0.89,-1.46 -1.35,-2.2c-3.19,-5.48 -4.71,-10.06 -3.33,-16.43c-1.98,0.33 -3.96,0.66 -6,1c-11.29,-16.24 -11.29,-16.24 -10.36,-24.37c0.12,-0.54 0.24,-1.08 0.36,-1.63c-1.65,0.33 -3.3,0.66 -5,1c-1.74,-2.46 -3.47,-4.93 -5.18,-7.41c-1.36,-1.93 -2.79,-3.81 -4.26,-5.65c-2.14,-4.03 -1.92,-7.47 -1.56,-11.94c-0.75,0.1 -1.5,0.19 -2.28,0.29c-2.72,-0.29 -2.72,-0.29 -4.64,-2.3c-0.84,-1.33 -0.84,-1.33 -1.71,-2.68c-0.57,-0.87 -1.14,-1.74 -1.73,-2.63c-0.81,-1.33 -0.81,-1.33 -1.64,-2.68c-0.55,-0.81 -1.1,-1.62 -1.67,-2.46c-5.18,-9.88 -2.44,-26.58 -2.33,-37.54c4.25,-0.67 8.5,-1.34 12.75,-2c1.81,-0.29 1.81,-0.29 3.65,-0.58c1.74,-0.27 1.74,-0.27 3.52,-0.54c1.07,-0.17 2.13,-0.34 3.24,-0.51c2.84,-0.37 2.84,-0.37 6.84,-0.37c-0.03,-0.63 -0.05,-1.26 -0.07,-1.9c-2.35,-66.93 -4.7,-133.85 -6.98,-200.77c-0.18,-5.13 -0.35,-10.25 -0.53,-15.37c-0.21,-5.99 -0.41,-11.99 -0.61,-17.98c-0.08,-2.18 -0.15,-4.35 -0.23,-6.53c-0.1,-2.95 -0.2,-5.91 -0.3,-8.86c-0.03,-0.85 -0.06,-1.7 -0.09,-2.57c-0.07,-2.34 -0.14,-4.68 -0.19,-7.02c-0.04,-1.23 -0.04,-1.23 -0.07,-2.5c-0.01,-0.8 -0.02,-1.6 -0.04,-2.43c-0.01,-0.71 -0.02,-1.43 -0.04,-2.17c0.15,-1.9 0.15,-1.9 1.52,-4.65c10.15,-8.7 23.99,-10.36 36.79,-12.12c1.16,-0.17 2.33,-0.33 3.53,-0.5c3.19,-0.45 6.38,-0.9 9.58,-1.34c3.46,-0.49 6.91,-0.98 10.37,-1.46c6.76,-0.96 13.52,-1.9 20.28,-2.85c7.88,-1.1 15.76,-2.21 23.64,-3.32c14.06,-1.98 28.12,-3.95 42.18,-5.92c13.64,-1.91 27.27,-3.82 40.9,-5.74c0.84,-0.12 1.68,-0.23 2.54,-0.36c3.38,-0.47 6.76,-0.95 10.14,-1.42c14.58,-2.05 29.16,-4.1 43.74,-6.15c2.36,-0.33 4.71,-0.66 7.07,-0.99c8.25,-1.16 16.5,-2.32 24.75,-3.47c3.41,-0.48 6.82,-0.96 10.23,-1.44c3.7,-0.51 7.4,-1.03 11.1,-1.55c1.07,-0.15 2.14,-0.3 3.25,-0.46c18.06,-2.52 39.29,-5.33 55.54,5.13zm107,146.71c0,27.39 0,54.78 0,83c9.33,-1.87 16.6,-9.34 22,-17c5.06,-9.33 6.31,-18.88 6.19,-29.38c0,-0.94 0,-1.88 -0.01,-2.85c-0.01,-2.97 -0.03,-5.93 -0.06,-8.89c-0.01,-2.03 -0.02,-4.06 -0.03,-6.08c-0.02,-4.93 -0.05,-9.87 -0.09,-14.8c-1.25,-0.65 -2.5,-1.29 -3.75,-1.94c-0.7,-0.36 -1.4,-0.72 -2.11,-1.09c-3.91,-1.77 -7.31,-2.11 -11.58,-2.09c-0.93,-0.01 -1.86,-0.01 -2.81,-0.01c-3.15,0.08 -3.15,0.08 -7.75,1.13z"
         fill="currentColor"
         id="svg_2"
      />
      <path
         d="m0,0c8.23,10.18 15.92,20.78 23.43,31.5c3.64,5.2 7.34,10.36 11.07,15.5c4.21,5.81 8.38,11.64 12.5,17.5c5.71,8.12 11.52,16.17 17.35,24.22c2.23,3.08 4.45,6.16 6.68,9.24c1.1,1.51 2.19,3.03 3.29,4.54c2.54,3.49 5.03,6.99 7.44,10.57c7.88,11.65 14.4,15.28 28.02,18.13c4.51,0.8 8.99,1.09 13.55,1.35c0.74,0.04 1.48,0.09 2.24,0.13c1.81,0.11 3.62,0.22 5.43,0.32c0.77,32.94 1.53,65.89 2.29,98.83c0.09,3.9 0.18,7.8 0.27,11.69c0.02,0.78 0.04,1.55 0.06,2.35c0.29,12.53 0.58,25.06 0.87,37.59c0.3,12.88 0.6,25.75 0.9,38.63c0.18,7.93 0.36,15.86 0.55,23.8c0.14,6.1 0.28,12.2 0.42,18.3c0.06,2.49 0.12,4.98 0.18,7.47c0.31,13.45 0.55,26.89 0.46,40.34c-4.62,0.66 -9.24,1.32 -14,2c0,-0.33 0,-0.66 0,-1c-0.89,-0.18 -1.79,-0.36 -2.71,-0.55c-3.77,-0.78 -7.53,-1.61 -11.29,-2.45c-0.96,-0.19 -1.92,-0.39 -2.91,-0.59c-6.78,-1.61 -10.12,-4.77 -14.09,-10.41c-0.72,-0.9 -1.44,-1.8 -2.18,-2.73c-2.33,-4.19 -2.14,-7.15 -2.01,-11.83c-0.06,-8.66 -2.5,-13.39 -7.88,-20.03c-1.93,-2.41 -1.93,-2.41 -1.93,-4.41c-1.98,0 -3.96,0 -6,0c-0.12,-0.73 -0.25,-1.45 -0.37,-2.2c-1.7,-8.25 -4.68,-15.67 -10.63,-21.8c-3.14,-0.91 -3.14,-0.91 -6,-1c0.03,-0.56 0.06,-1.12 0.1,-1.7c-0.09,-6.29 -2.01,-10.64 -5.29,-15.86c-0.37,-0.62 -0.75,-1.24 -1.13,-1.88c-2.1,-3.17 -3.26,-4.45 -6.98,-5.46c-1.34,-0.05 -1.34,-0.05 -2.7,-0.1c0.02,-0.59 0.04,-1.19 0.06,-1.8c-0.2,-8.3 -3.99,-12.91 -9.06,-19.2c-0.33,-0.66 -0.66,-1.32 -1,-2c-3.03,-0.66 -3.03,-0.66 -6,-1c0.03,-0.57 0.06,-1.14 0.1,-1.73c-0.09,-6.23 -1.91,-10.31 -5.35,-15.33c-0.38,-0.57 -0.77,-1.15 -1.16,-1.74c-1.91,-2.63 -3.03,-4.06 -6.24,-4.86c-1.16,-0.17 -1.16,-0.17 -2.35,-0.34c-0.9,-25.95 -1.79,-51.9 -2.69,-77.85c-0.41,-12.05 -0.83,-24.1 -1.24,-36.16c-0.37,-10.52 -0.73,-21.03 -1.09,-31.55c-0.19,-5.56 -0.39,-11.12 -0.58,-16.67c-0.41,-11.88 -0.82,-23.77 -1.22,-35.65c-0.12,-3.3 -0.23,-6.61 -0.35,-9.91c-0.14,-4.2 -0.28,-8.39 -0.43,-12.59c-0.04,-1.17 -0.08,-2.34 -0.12,-3.55c-0.28,-8.49 -0.41,-16.96 -0.34,-25.44c0,-1.25 0.01,-2.5 0.01,-3.79c0.01,-2.94 0.03,-5.89 0.05,-8.84z"
         fill="currentColor"
         id="svg_3"
         transform="translate(23,89)"
      />
      <path
         d="m356.63,54.56c3.73,3.52 6.86,7.57 10.05,11.58c2.2,2.7 4.48,5.29 6.83,7.86c3.02,3.32 5.92,6.7 8.75,10.19c5.21,6.43 10.66,12.66 16.1,18.91c4.08,4.7 8.11,9.43 12.15,14.15c1.52,1.78 3.04,3.55 4.56,5.31c2.5,2.91 5,5.83 7.49,8.75c1.44,1.68 2.89,3.35 4.35,5.02c0.91,1.06 1.81,2.11 2.72,3.17c0.8,0.92 1.59,1.83 2.41,2.78c2.09,2.89 3.14,5.26 3.97,8.72c-1.12,4.44 -3.41,6.61 -7.07,9.12c-6.57,3.58 -13.36,5.04 -20.66,6.31c-2.5,0.43 -4.99,0.89 -7.49,1.37c-3.98,0.75 -7.97,1.44 -11.97,2.1c-1.62,0.27 -3.24,0.56 -4.85,0.87c-13.06,2.45 -13.06,2.45 -17.74,-0.56c-2.07,-2.3 -3.66,-4.55 -5.22,-7.21c-6.3,-8.76 -14.74,-11.01 -25.01,-13c-3.95,-0.39 -7.84,-0.43 -11.81,-0.38c-1.08,0.01 -2.16,0.02 -3.28,0.03c-11.12,0.2 -21.94,1.58 -32.91,3.35c-1.75,0.28 -1.75,0.28 -3.53,0.57c-5.17,0.83 -10.33,1.67 -15.49,2.52c-10.36,1.7 -20.74,3.11 -31.15,4.46c-7.53,0.98 -15.02,2.08 -22.51,3.32c-12.52,2.07 -25.08,3.79 -37.65,5.52c-12.14,1.67 -24.26,3.4 -36.35,5.49c-9.66,1.64 -9.66,1.64 -14.32,1.12c-1.97,-1.56 -1.97,-1.56 -3.62,-3.88c-0.67,-0.91 -1.34,-1.83 -2.03,-2.77c-0.37,-0.53 -0.74,-1.06 -1.12,-1.6c-1.35,-1.94 -2.74,-3.85 -4.13,-5.76c-2.2,-3.02 -4.38,-6.05 -6.56,-9.08c-4.31,-6.01 -8.72,-11.96 -13.13,-17.89c-0.56,-0.76 -1.12,-1.52 -1.7,-2.3c-0.5,-0.67 -1,-1.35 -1.51,-2.04c-6.55,-9.26 -3.26,-29.14 -3.22,-39.97c0,-1.23 0,-2.46 0,-3.73c0.01,-2.99 0.02,-5.99 0.02,-8.98c19.86,-2.85 39.71,-5.69 59.56,-8.53c9.23,-1.32 18.45,-2.64 27.68,-3.97c24.58,-3.52 49.17,-7.03 73.76,-10.5c1.25,-0.18 1.25,-0.18 2.52,-0.36c10.25,-1.44 20.51,-2.88 30.77,-4.3c2.84,-0.39 5.68,-0.79 8.52,-1.19c3.89,-0.54 7.77,-1.08 11.66,-1.61c1.12,-0.16 2.23,-0.31 3.39,-0.48c15.54,-2.1 35.77,-2.82 48.77,7.5z"
         fill="currentColor"
         id="svg_4"
      />
      <path
         d="m520,127c11.03,0.95 17.27,5.85 24.45,14c1.55,2 1.55,2 2.51,4.13c1.32,2.37 2.63,2.69 5.04,3.87c1.63,1.95 1.63,1.95 3.13,4.25c0.49,0.75 0.99,1.5 1.5,2.27c3.63,6.58 3.65,12.54 3.6,19.89c0,1.14 0,2.27 0,3.44c0,3.74 -0.02,7.48 -0.04,11.21c-0.01,2.6 -0.02,5.19 -0.03,7.79c-0.03,6.04 -0.07,12.08 -0.11,18.13c-0.04,4.58 -0.07,9.16 -0.09,13.75c-0.04,6.07 -0.09,12.14 -0.17,18.21c-0.03,2.27 -0.05,4.54 -0.06,6.81c-0.11,15.9 -0.45,29.84 -11.73,42.25c-11,9.75 -22.64,12.64 -36.75,14.87c-2.44,0.38 -4.89,0.79 -7.33,1.19c-1.57,0.26 -3.14,0.51 -4.71,0.77c-0.72,0.12 -1.44,0.24 -2.18,0.36c-4.49,0.7 -8.42,0.81 -13.03,0.81c0,-10.56 0,-21.12 0,-32c7.43,-1.98 7.43,-1.98 15,-4c5.74,-2.76 10.28,-5.76 15,-10c-3.54,-4.79 -7.14,-9.46 -11,-14c1.14,-2.3 2.3,-4.59 3.47,-6.87c0.53,-1.04 1.05,-2.07 1.59,-3.13c0.79,-1.55 0.79,-1.55 1.6,-3.12c1.9,-4.08 2.47,-7.39 2.5,-11.88c0.01,-0.99 0.02,-1.98 0.03,-3c0,-1.06 0.01,-2.13 0.01,-3.22c0.01,-1.65 0.01,-1.65 0.02,-3.33c0.01,-2.31 0.02,-4.63 0.02,-6.95c0.01,-3.55 0.04,-7.11 0.07,-10.66c0.01,-2.25 0.01,-4.5 0.02,-6.75c0.01,-1.07 0.02,-2.13 0.04,-3.23c-0.01,-0.99 -0.01,-1.98 -0.01,-2.99c0,-0.87 0,-1.74 0.01,-2.64c-0.45,-2.74 -1.18,-3.57 -3.37,-5.23c-5.55,-2.11 -10.6,-2.25 -16.44,-2.12c-0.82,0 -1.65,0.01 -2.5,0.02c-2.02,0.03 -4.04,0.06 -6.06,0.1c0.04,-0.65 0.07,-1.31 0.11,-1.98c0.15,-3.01 0.24,-6.01 0.33,-9.02c0.09,-1.54 0.09,-1.54 0.18,-3.12c0.12,-5.8 -0.24,-9.17 -4.15,-13.63c-1.13,-1.11 -2.28,-2.21 -3.47,-3.25c2.85,-1.57 5.3,-2.37 8.52,-2.85c0.89,-0.14 1.78,-0.28 2.69,-0.42c0.95,-0.14 1.9,-0.28 2.88,-0.42c0.99,-0.15 1.97,-0.3 2.98,-0.46c3.15,-0.47 6.29,-0.94 9.43,-1.41c3.14,-0.48 6.28,-0.95 9.43,-1.43c1.95,-0.3 3.9,-0.59 5.86,-0.88c1.33,-0.2 1.33,-0.2 2.69,-0.41c0.78,-0.11 1.56,-0.23 2.36,-0.35c2.09,-0.36 4.11,-0.83 6.16,-1.37c-0.72,-0.78 -1.44,-1.56 -2.19,-2.37c-0.94,-1.02 -1.87,-2.05 -2.81,-3.07c-0.48,-0.51 -0.95,-1.03 -1.45,-1.56c-3.55,-3.89 -3.55,-3.89 -3.55,-5z"
         fill="currentColor"
         id="svg_6"
      />
      <path
         d="m0,0c12.47,0.15 27.08,1.32 36.58,10.3c2.96,3.22 5.69,6.61 8.41,10.03c2.2,2.7 4.47,5.29 6.82,7.86c3.03,3.32 5.93,6.7 8.75,10.19c5.22,6.43 10.67,12.66 16.11,18.91c4.07,4.7 8.11,9.43 12.15,14.15c1.52,1.78 3.04,3.55 4.56,5.31c2.5,2.91 4.99,5.83 7.48,8.75c1.45,1.68 2.9,3.35 4.36,5.02c0.91,1.06 1.81,2.11 2.72,3.17c0.79,0.92 1.59,1.83 2.41,2.78c2.09,2.89 3.14,5.26 3.96,8.72c-1.11,4.44 -3.4,6.61 -7.06,9.12c-6.58,3.58 -13.36,5.04 -20.66,6.31c-2.5,0.43 -5,0.89 -7.49,1.37c-3.98,0.75 -7.97,1.44 -11.97,2.1c-1.62,0.27 -3.24,0.56 -4.85,0.87c-13.07,2.45 -13.07,2.45 -17.74,-0.56c-2.07,-2.3 -3.66,-4.55 -5.23,-7.21c-6.92,-9.64 -17.83,-12.05 -29,-14c-4.99,-0.62 -9.97,-0.82 -15,-1c-0.93,-20.43 -1.16,-40.81 -1.13,-61.25c0.01,-4.19 0,-8.38 0,-12.57c-0.01,-3.25 0,-6.51 0,-9.77c0,-1.55 0,-3.1 0,-4.64c-0.01,-2.14 0,-4.27 0,-6.4c0,-1.21 0,-2.42 0.01,-3.67c0.21,-4.46 1.77,-3.86 5.81,-3.89z"
         fill="currentColor"
         id="svg_8"
         transform="translate(321.6875,45.8125)"
      />
      <path
         d="m0,0c4.83,4.14 8.96,9.25 12.63,14.44c0,0.66 0,1.32 0,2c-20.86,3.56 -41.74,6.82 -62.67,9.91c-4.04,0.6 -8.08,1.2 -12.13,1.8c-6.75,1.01 -13.51,2.01 -20.26,3.01c-8.65,1.28 -17.3,2.56 -25.95,3.85c-7.5,1.11 -15,2.23 -22.5,3.34c-2.38,0.35 -4.77,0.71 -7.16,1.06c-3.74,0.56 -7.49,1.11 -11.23,1.67c-1.37,0.2 -2.74,0.4 -4.1,0.6c-45.46,6.75 -45.46,6.75 -63.01,-5.24c-2.31,-2.14 -4.16,-4.44 -6,-7c-0.72,-0.96 -0.72,-0.96 -1.47,-1.94c-3.53,-4.72 -3.53,-4.72 -3.53,-7.06c18.04,-3.01 36.06,-5.74 54.19,-8.1c8.11,-1.06 16.19,-2.27 24.27,-3.51c4.76,-0.73 9.53,-1.44 14.29,-2.14c1.63,-0.24 1.63,-0.24 3.28,-0.49c14.17,-2.09 28.35,-4.15 42.52,-6.21c10.31,-1.5 20.62,-3.02 30.93,-4.57c1.49,-0.23 2.98,-0.45 4.47,-0.68c1.92,-0.28 3.84,-0.58 5.76,-0.87c15.16,-1.99 34.47,-2.71 47.67,6.13z"
         fill="currentColor"
         id="svg_9"
         transform="translate(355.375,155.5625)"
      />
      <path
         d="m0,0c0,89.43 0,178.86 0,271c1.42,-2.84 1.16,-5.29 1.21,-8.47c0.01,-0.66 0.02,-1.33 0.03,-2.01c0.03,-2.2 0.05,-4.39 0.08,-6.59c0.02,-1.52 0.04,-3.04 0.06,-4.57c0.05,-4 0.1,-8.01 0.15,-12.02c0.05,-4.09 0.11,-8.18 0.16,-12.27c0.11,-8.02 0.21,-16.05 0.31,-24.07c3,0 3,0 4.39,1.25c3.56,4.79 4.13,7.81 3.61,13.75c0.99,-0.21 1.98,-0.41 3,-0.62c3.06,-0.04 3.87,0.5 6.11,2.67c2.05,2.6 3.98,5.25 5.89,7.95c0.69,0.71 1.38,1.42 2.09,2.16c2.47,3.67 2.42,6.71 2.3,10.98c-0.01,0.77 -0.01,1.54 -0.02,2.34c-0.02,2.44 -0.07,4.89 -0.12,7.33c-0.02,1.67 -0.04,3.33 -0.05,4.99c-0.05,4.07 -0.12,8.13 -0.2,12.2c-3.37,0.68 -6.75,1.34 -10.12,2c-1.43,0.29 -1.43,0.29 -2.89,0.58c-4.73,0.92 -9.15,1.68 -13.99,1.42c-0.19,0.7 -0.37,1.4 -0.56,2.13c-3.41,6.81 -9.38,9.6 -16.3,12.11c-4.3,1.04 -8.74,1.32 -13.14,1.76c0,12.21 0,24.42 0,37c-8.29,1.52 -8.29,1.52 -16.75,3.06c-1.74,0.32 -3.48,0.65 -5.27,0.98c-1.38,0.25 -2.77,0.5 -4.15,0.75c-1.07,0.2 -1.07,0.2 -2.16,0.4c-6.82,1.21 -6.82,1.21 -9.67,-0.19c-1.83,-1.95 -1.83,-1.95 -3.67,-4.47c-0.67,-0.9 -1.33,-1.8 -2.01,-2.73c-0.69,-0.94 -1.37,-1.89 -2.07,-2.86c-0.7,-0.95 -1.39,-1.9 -2.11,-2.88c-1.73,-2.35 -3.44,-4.7 -5.14,-7.06c0.33,-0.66 0.66,-1.32 1,-2c4.62,5.94 9.24,11.88 14,18c0.21,-4.2 0.39,-8.38 0.49,-12.59c0.05,-1.42 0.11,-2.84 0.19,-4.26c0.44,-8.2 0.13,-14.38 -5.28,-20.92c-0.84,-0.92 -1.68,-1.84 -2.55,-2.79c-1.85,-2.44 -1.85,-2.44 -1.63,-4.77c0.26,-0.55 0.52,-1.1 0.78,-1.67c2.65,-0.47 5.31,-0.91 7.97,-1.31c3.1,-0.49 6.11,-1.18 9.15,-1.91c13.59,-3 13.59,-3 17.79,-0.77c4.17,3.58 6.66,8.13 9.09,12.99c0.76,-0.27 1.53,-0.54 2.31,-0.81c6.48,-2.09 13.01,-3.88 19.69,-5.19c0,-0.87 0,-1.75 0,-2.65c-0.03,-21.8 -0.04,-43.59 -0.05,-65.39c-0.01,-10.54 -0.01,-21.08 -0.03,-31.63c-0.06,-59.12 0.28,-118.22 1.08,-177.33c5.87,-3 5.87,-3 7,-3z"
         fill="currentColor"
         id="svg_10"
         transform="translate(482,168)"
      />
      <path
         d="m0,0c0.06,24.01 0.07,48.03 0.03,72.04c0,1.99 0,3.98 -0.01,5.97c0,1.38 0,2.76 0,4.14c-0.01,8.8 -0.02,17.61 -0.02,26.41c0,0.91 0,1.82 0,2.76c0,1.39 0,1.39 0,2.8c0,19.85 -0.03,39.69 -0.08,59.53c-0.03,10.11 -0.05,20.22 -0.04,30.33c0.01,8.75 -0.01,17.5 -0.05,26.25c-0.02,4.54 -0.03,9.09 -0.01,13.63c0.01,4.21 0,8.43 -0.03,12.64c-0.01,1.53 -0.01,3.07 0,4.61c0.09,11.56 0.09,11.56 -2.14,14.93c-3.44,2.96 -3.44,2.96 -5.65,2.96c-0.02,-22.55 -0.04,-45.1 -0.05,-67.65c-0.01,-10.48 -0.01,-20.96 -0.03,-31.44c-0.06,-58.98 0.29,-117.94 1.08,-176.91c5.87,-3 5.87,-3 7,-3z"
         fill="currentColor"
         id="svg_12"
         transform="translate(482,168)"
      />
      <path
         d="m0,0c7.26,0 14.52,0 22,0c1.06,24.44 1.57,48.89 2.11,73.35c0.11,4.92 0.22,9.84 0.33,14.76c0.26,11.62 0.52,23.25 0.77,34.87c0.26,11.91 0.53,23.82 0.8,35.73c0.23,10.3 0.46,20.61 0.69,30.91c0.13,6.12 0.27,12.24 0.4,18.36c1.1,48.63 1.1,48.63 0.9,72.02c-3.3,0.33 -6.6,0.66 -10,1c1.32,-0.33 2.64,-0.66 4,-1c-0.07,-1.05 -0.13,-2.1 -0.2,-3.17c-0.73,-12.18 -1.1,-24.34 -1.37,-36.53c-0.05,-2.11 -0.1,-4.23 -0.15,-6.34c-0.13,-5.7 -0.26,-11.4 -0.39,-17.09c-0.11,-4.8 -0.22,-9.6 -0.33,-14.39c-0.26,-11.36 -0.52,-22.71 -0.77,-34.06c-0.26,-11.6 -0.53,-23.2 -0.8,-34.8c-0.23,-10.05 -0.46,-20.09 -0.69,-30.13c-0.13,-5.96 -0.27,-11.92 -0.4,-17.88c-0.66,-28.21 -1.05,-56.39 -0.9,-84.61c-5.28,0 -10.56,0 -16,0c0,-0.33 0,-0.66 0,-1z"
         fill="currentColor"
         id="svg_13"
         transform="translate(138,221)"
      />
      <path
         d="m0,0c1.98,0 3.96,0 6,0c0.77,32.94 1.53,65.89 2.29,98.83c0.09,3.9 0.18,7.8 0.27,11.69c0.02,0.78 0.04,1.55 0.06,2.35c0.29,12.53 0.58,25.06 0.87,37.59c0.3,12.88 0.6,25.75 0.9,38.63c0.18,7.93 0.36,15.86 0.55,23.8c0.14,6.1 0.28,12.2 0.42,18.3c0.06,2.49 0.12,4.98 0.18,7.47c0.31,13.45 0.55,26.89 0.46,40.34c-1.98,0.33 -3.96,0.66 -6,1c-1.13,-22.82 -1.58,-45.66 -2.11,-68.5c-0.08,-3.47 -0.16,-6.93 -0.25,-10.4c-0.28,-12.17 -0.57,-24.34 -0.85,-36.52c-0.26,-11.22 -0.53,-22.44 -0.8,-33.66c-0.23,-9.73 -0.46,-19.46 -0.69,-29.2c-0.13,-5.76 -0.27,-11.53 -0.4,-17.3c-0.68,-28.15 -1.06,-56.27 -0.9,-84.42z"
         fill="currentColor"
         id="svg_14"
         transform="translate(148,222)"
      />
      <path
         d="m0,0c0.02,23.44 0.04,46.87 0.05,70.31c0.01,10.89 0.01,21.78 0.03,32.67c0.06,57.68 -0.23,115.35 -1.08,173.02c-1.65,0.33 -3.3,0.66 -5,1c-0.03,-13.37 -0.05,-26.75 -0.06,-40.12c0,-1.07 0,-2.13 -0.01,-3.22c-0.03,-50.68 0.27,-101.36 0.57,-152.03c0.01,-1 0.01,-2 0.02,-3.02c0.15,-25.87 0.31,-51.74 0.48,-77.61c2,-1 2,-1 5,-1z"
         fill="currentColor"
         id="svg_15"
         transform="translate(465,175)"
      />
      <path
         d="m0,0c1.32,0 2.64,0 4,0c0.02,24.91 0.04,49.82 0.05,74.74c0.01,11.57 0.01,23.15 0.03,34.73c0.05,55.52 -0.11,111.02 -1.08,166.53c-1.65,0.33 -3.3,0.66 -5,1c-0.07,-58.71 0.08,-117.42 0.39,-176.13c0.04,-8.73 0.08,-17.45 0.12,-26.18c0.04,-8.55 0.08,-17.11 0.13,-25.67c0.02,-5.05 0.05,-10.09 0.07,-15.14c0.02,-4.67 0.04,-9.33 0.07,-14c0.01,-1.71 0.02,-3.42 0.02,-5.13c0.01,-2.31 0.03,-4.63 0.04,-6.95c0.01,-1.95 0.01,-1.95 0.02,-3.93c0.14,-2.87 0.14,-2.87 1.14,-3.87z"
         fill="currentColor"
         id="svg_16"
         transform="translate(466,174)"
      />
      <path
         d="m0,0c0.07,59.78 -0.09,119.55 -0.45,179.32c-0.06,10.6 -0.12,21.19 -0.18,31.79c-0.12,21.63 -0.24,43.26 -0.37,64.89c-1.65,0.33 -3.3,0.66 -5,1c-0.18,-56.44 0.29,-112.86 0.89,-169.3c0.12,-11.67 0.24,-23.35 0.36,-35.03c0.25,-23.89 0.5,-47.78 0.75,-71.67c2,-1 2,-1 4,-1z"
         fill="currentColor"
         id="svg_17"
         transform="translate(475,172)"
      />
      <path
         d="m0,0c3,3 3,3 10,13c17.32,-2.47 17.32,-2.47 35,-5c0,2.97 0,5.94 0,9c-6.33,1.47 -12.64,2.65 -19.06,3.63c-0.87,0.13 -1.73,0.26 -2.63,0.4c-2.1,0.33 -4.2,0.65 -6.31,0.97c0,3.99 1.52,5.18 3.94,8.31c4.73,6.98 5.18,12.42 5.06,20.69c0.01,1.63 0.02,3.26 0.04,4.89c0.03,4.37 0,8.74 -0.04,13.11c-10.9,-13.55 -10.9,-13.55 -10,-23c-0.75,0.1 -1.5,0.19 -2.27,0.29c-2.73,-0.29 -2.73,-0.29 -4.64,-2.3c-0.57,-0.88 -1.13,-1.77 -1.71,-2.68c-0.57,-0.87 -1.14,-1.74 -1.73,-2.63c-0.55,-0.89 -1.09,-1.77 -1.65,-2.68c-0.55,-0.81 -1.1,-1.61 -1.67,-2.44c-4.66,-8.96 -2.44,-23.57 -2.33,-33.56z"
         fill="currentColor"
         id="svg_18"
         transform="translate(1,358)"
      />
      <path
         d="m0,0c0.08,30.3 0.06,60.59 0.01,90.89c-0.01,4.98 -0.01,9.97 -0.02,14.95c-0.04,22.64 -0.09,45.27 -0.18,67.91c-0.03,10.13 -0.07,20.25 -0.08,30.38c-0.01,8.76 -0.04,17.52 -0.08,26.28c-0.03,4.56 -0.04,9.11 -0.04,13.66c0,4.22 -0.02,8.44 -0.05,12.65c-0.01,1.54 -0.01,3.08 -0.01,4.62c0.01,2.1 -0.01,4.19 -0.03,6.28c-0.01,1.75 -0.01,1.75 -0.01,3.54c-0.51,2.84 -0.51,2.84 -2.54,4.74c-0.65,0.36 -1.3,0.73 -1.97,1.1c-0.03,-25.69 0.06,-51.37 0.18,-77.05c0.01,-2.02 0.02,-4.05 0.03,-6.07c0.05,-9.51 0.1,-19.02 0.15,-28.53c0.05,-9.7 0.09,-19.41 0.14,-29.12c0.43,-93.1 0.43,-93.1 1.5,-135.23c2,-1 2,-1 3,-1z"
         fill="currentColor"
         id="svg_19"
         transform="translate(482,168)"
      />
      <path
         d="m0,0c0.49,4.46 0.49,4.46 1,9c-6.07,1.46 -12.16,2.59 -18.31,3.63c-0.79,0.13 -1.58,0.27 -2.39,0.4c-0.76,0.13 -1.51,0.25 -2.29,0.38c-0.67,0.12 -1.35,0.23 -2.05,0.35c-1.96,0.24 -1.96,0.24 -5.96,0.24c0.71,1.07 1.42,2.15 2.15,3.25c0.93,1.44 1.86,2.88 2.79,4.31c0.47,0.71 0.93,1.41 1.42,2.14c5.37,8.38 4.77,16.55 4.7,26.24c0,1.16 -0.01,2.32 -0.01,3.52c-0.01,2.84 -0.03,5.69 -0.05,8.54c-4.82,-4.74 -9.46,-9.95 -10.38,-16.87c0,-2.41 0.11,-4.74 0.38,-7.13c-2.97,0.49 -2.97,0.49 -6,1c-0.76,-11.02 -1.13,-21.95 -1,-33c6.45,-2.07 13,-3.08 19.69,-4.12c1.12,-0.19 2.25,-0.37 3.41,-0.56c4.37,-0.69 8.47,-1.32 12.9,-1.32z"
         fill="currentColor"
         id="svg_20"
         transform="translate(94,440)"
      />
      <path
         d="m0,0c1.35,1.47 1.35,1.47 2.7,3.5c0.49,0.72 0.97,1.44 1.47,2.19c0.5,0.76 1,1.52 1.52,2.31c0.51,0.76 1.02,1.53 1.55,2.31c1.26,1.89 2.51,3.79 3.76,5.69c-3.49,2.03 -6.85,2.65 -10.81,3.32c-0.65,0.11 -1.3,0.23 -1.97,0.34c-1.38,0.23 -2.75,0.46 -4.12,0.68c-2.09,0.35 -4.19,0.71 -6.28,1.07c-1.34,0.22 -2.67,0.44 -4.01,0.66c-1.21,0.21 -2.42,0.41 -3.67,0.62c-4.56,0.45 -4.56,0.45 -7.14,-0.69c-1.37,-1.49 -1.37,-1.49 -2.58,-3.38c-0.44,-0.67 -0.87,-1.35 -1.33,-2.04c-0.66,-1.06 -0.66,-1.06 -1.34,-2.14c-0.46,-0.71 -0.92,-1.42 -1.39,-2.16c-1.13,-1.75 -2.25,-3.51 -3.36,-5.28c3.38,-2.25 6.34,-2.82 10.25,-3.5c0.7,-0.13 1.4,-0.25 2.13,-0.38c17.64,-3.12 17.64,-3.12 24.62,-3.12z"
         fill="currentColor"
         id="svg_21"
         transform="translate(222,476)"
      />
      <path
         d="m0,0c1.13,0.94 2.26,1.89 3.39,2.84c0.63,0.53 1.26,1.06 1.91,1.6c2.13,1.95 3.35,3.89 4.58,6.5c0.38,0.79 0.77,1.58 1.17,2.4c2.25,6.32 2.06,12.78 1.9,19.39c-0.02,0.91 -0.04,1.83 -0.06,2.77c-0.04,1.92 -0.08,3.83 -0.13,5.75c-0.07,2.94 -0.13,5.87 -0.18,8.81c-0.04,1.87 -0.09,3.74 -0.13,5.61c-0.02,0.87 -0.03,1.75 -0.05,2.65c-0.02,0.82 -0.04,1.64 -0.07,2.48c-0.01,0.72 -0.03,1.43 -0.04,2.17c-0.33,2.33 -1.14,3.99 -2.29,6.03c-4,-4.75 -4,-4.75 -4,-7c-0.66,0 -1.32,0 -2,0c-4,-4.47 -4,-4.47 -4,-7c-0.66,-0.33 -1.32,-0.66 -2,-1c0.24,-0.83 0.24,-0.83 0.49,-1.68c0.55,-2.51 0.67,-4.79 0.72,-7.36c0.02,-1 0.04,-2.01 0.06,-3.04c0.01,-1.07 0.03,-2.14 0.05,-3.25c0.02,-1.1 0.04,-2.21 0.06,-3.34c0.06,-3.53 0.12,-7.05 0.18,-10.58c0.05,-2.39 0.09,-4.78 0.13,-7.17c0.11,-5.86 0.21,-11.72 0.31,-17.58z"
         fill="currentColor"
         id="svg_22"
         transform="translate(513,185)"
      />
      <path
         d="m0,0c4.44,0.95 6.13,4.33 8.56,7.95c0.5,0.7 1,1.4 1.51,2.12c3.62,5.17 3.62,5.17 3.62,7.51c-17.82,2.97 -17.82,2.97 -36,6c-1.82,-2.44 -3.63,-4.87 -5.5,-7.38c-0.58,-0.76 -1.15,-1.53 -1.74,-2.31c-0.45,-0.61 -0.9,-1.21 -1.36,-1.84c-0.46,-0.61 -0.92,-1.23 -1.39,-1.87c-1.01,-1.6 -1.01,-1.6 -1.01,-3.6c6.33,-1.66 12.68,-2.95 19.12,-4.13c0.97,-0.18 1.93,-0.36 2.92,-0.55c3.75,-0.68 7.52,-1.24 11.27,-1.9z"
         fill="currentColor"
         id="svg_23"
         transform="translate(274.3125,466.421875)"
      />
      <path
         d="m0,0c2.06,-0.21 2.06,-0.21 5.47,0.42c2.38,2.19 3.9,4.7 5.5,7.5c0.44,0.72 0.88,1.43 1.34,2.17c1.08,1.76 2.12,3.54 3.16,5.33c-2.75,2.75 -4.97,2.7 -8.8,3.32c-0.67,0.11 -1.35,0.23 -2.04,0.34c-1.43,0.23 -2.85,0.46 -4.28,0.68c-2.18,0.34 -4.35,0.71 -6.52,1.07c-1.39,0.22 -2.77,0.44 -4.16,0.66c-1.89,0.31 -1.89,0.31 -3.82,0.62c-3.18,0.29 -5.37,0.34 -8.38,-0.69c-1.84,-2.31 -3.32,-4.43 -4.81,-6.94c-0.41,-0.64 -0.82,-1.29 -1.23,-1.96c-2.96,-4.78 -2.96,-4.78 -2.96,-7.1c3.98,-0.72 7.97,-1.43 11.95,-2.14c1.35,-0.24 2.71,-0.48 4.06,-0.72c5.16,-0.94 10.35,-1.7 15.52,-2.56z"
         fill="currentColor"
         id="svg_24"
         transform="translate(95.529296875,448.580078125)"
      />
      <path
         d="m0,0c1.58,1.47 1.58,1.47 2.89,3.34c0.48,0.67 0.96,1.34 1.46,2.03c0.48,0.7 0.97,1.41 1.46,2.13c0.76,1.05 0.76,1.05 1.52,2.13c3.67,5.18 3.67,5.18 3.67,6.37c-4.14,0.72 -8.29,1.43 -12.43,2.14c-1.41,0.24 -2.82,0.48 -4.22,0.72c-2.04,0.36 -4.07,0.7 -6.1,1.05c-1.22,0.21 -2.44,0.42 -3.7,0.63c-3.61,0.47 -6.92,0.73 -10.55,0.46c-2.2,-2.12 -3.69,-3.84 -5.38,-6.31c-0.43,-0.6 -0.87,-1.19 -1.32,-1.81c-1.87,-2.59 -3.28,-4.83 -4.3,-7.88c6.67,-1.78 13.38,-3.04 20.19,-4.19c1.06,-0.19 2.13,-0.38 3.23,-0.57c1.03,-0.18 2.06,-0.35 3.12,-0.53c0.93,-0.16 1.86,-0.32 2.82,-0.49c2.86,-0.24 4.91,-0.1 7.64,0.78z"
         fill="currentColor"
         id="svg_25"
         transform="translate(333,459)"
      />
      <path
         d="m0,0c1.58,1.47 1.58,1.47 2.89,3.34c0.48,0.67 0.96,1.34 1.46,2.03c0.48,0.7 0.97,1.41 1.46,2.13c0.76,1.05 0.76,1.05 1.52,2.13c3.67,5.18 3.67,5.18 3.67,6.37c-4.14,0.72 -8.29,1.43 -12.43,2.14c-1.41,0.24 -2.82,0.48 -4.22,0.72c-2.04,0.36 -4.07,0.7 -6.1,1.05c-1.22,0.21 -2.44,0.42 -3.7,0.63c-9.54,1.23 -9.54,1.23 -12.35,-0.92c-0.64,-0.94 -0.64,-0.94 -1.29,-1.9c-0.47,-0.68 -0.95,-1.35 -1.44,-2.05c-0.46,-0.72 -0.93,-1.43 -1.41,-2.17c-0.49,-0.72 -0.98,-1.43 -1.49,-2.17c-1.21,-1.76 -2.39,-3.54 -3.57,-5.33c2.71,-2.71 4.82,-2.69 8.58,-3.32c0.65,-0.11 1.3,-0.23 1.98,-0.34c1.37,-0.23 2.75,-0.46 4.13,-0.68c2.11,-0.34 4.2,-0.71 6.3,-1.07c1.35,-0.22 2.69,-0.44 4.03,-0.66c1.22,-0.21 2.44,-0.41 3.69,-0.62c3.16,-0.3 5.3,-0.33 8.29,0.69z"
         fill="currentColor"
         id="svg_26"
         transform="translate(388,450)"
      />
      <path
         d="m0,0c1.46,1.37 1.46,1.37 2.8,3.09c0.72,0.93 0.72,0.93 1.46,1.88c0.49,0.65 0.98,1.3 1.49,1.97c0.51,0.64 1.01,1.29 1.54,1.96c3.71,4.82 3.71,4.82 3.71,7.1c-4.16,0.72 -8.32,1.43 -12.49,2.14c-1.41,0.24 -2.83,0.48 -4.24,0.72c-2.04,0.36 -4.08,0.7 -6.12,1.05c-1.84,0.31 -1.84,0.31 -3.71,0.63c-3.25,0.43 -6.18,0.74 -9.44,0.46c-2.16,-2.08 -3.72,-3.85 -5.44,-6.25c-0.46,-0.59 -0.91,-1.17 -1.39,-1.78c-3.23,-4.33 -3.23,-4.33 -2.96,-7.39c0.39,-0.78 0.39,-0.78 0.79,-1.58c2.72,-0.45 5.43,-0.9 8.15,-1.35c2.84,-0.48 5.68,-0.98 8.51,-1.49c0.8,-0.14 1.6,-0.28 2.43,-0.42c1.59,-0.28 3.18,-0.57 4.76,-0.86c6.71,-1.17 6.71,-1.17 10.15,0.12z"
         fill="currentColor"
         id="svg_27"
         transform="translate(442,441)"
      />
      <path
         d="m0,0c2.25,-0.3 3.65,-0.29 5.81,0.45c4.49,4.63 7.14,10.27 10,16c-17.82,2.97 -17.82,2.97 -36,6c-10,-15 -10,-15 -10,-17c3.36,-0.65 6.71,-1.29 10.06,-1.94c0.95,-0.18 1.89,-0.36 2.86,-0.55c5.74,-1.1 11.56,-1.79 17.27,-2.96z"
         fill="currentColor"
         id="svg_29"
         transform="translate(78.1875,423.55078125)"
      />
      <path
         d="m0,0c1.71,1.38 1.71,1.38 2.87,3.28c0.43,0.68 0.86,1.35 1.3,2.05c0.42,0.72 0.84,1.43 1.27,2.17c0.44,0.72 0.89,1.43 1.35,2.17c1.09,1.76 2.15,3.54 3.21,5.33c-3.6,2.15 -7.31,2.69 -11.39,3.29c-0.71,0.11 -1.41,0.22 -2.14,0.33c-2.24,0.34 -4.48,0.67 -6.72,1.01c-1.52,0.23 -3.05,0.46 -4.57,0.69c-3.73,0.57 -7.45,1.13 -11.18,1.68c-1.11,-1.56 -2.21,-3.12 -3.31,-4.69c-0.62,-0.87 -1.23,-1.74 -1.87,-2.63c-4.82,-7.08 -4.82,-7.08 -4.82,-9.68c4,-0.72 8,-1.43 12.01,-2.14c1.35,-0.24 2.71,-0.48 4.07,-0.72c1.96,-0.36 3.93,-0.7 5.89,-1.05c1.77,-0.31 1.77,-0.31 3.57,-0.63c3.59,-0.48 6.85,-0.76 10.46,-0.46z"
         fill="currentColor"
         id="svg_30"
         transform="translate(68,399)"
      />
      <path
         d="m0,0c2.08,-0.17 2.08,-0.17 5.56,0.34c2.19,2.18 3.46,3.74 5,6.31c0.59,0.89 0.59,0.89 1.19,1.8c1.8,2.82 2.81,4.49 2.81,7.89c-4.49,0.74 -8.97,1.47 -13.46,2.19c-1.52,0.25 -3.05,0.5 -4.57,0.75c-2.19,0.36 -4.39,0.71 -6.58,1.06c-0.68,0.12 -1.36,0.23 -2.06,0.35c-6.35,0.99 -6.35,0.99 -9.33,-0.35c-1.75,-2.34 -3.26,-4.58 -4.75,-7.06c-0.42,-0.67 -0.83,-1.33 -1.25,-2.01c-1.01,-1.64 -2.01,-3.29 -3,-4.93c2.54,-2.55 4.06,-2.53 7.6,-3.07c1.13,-0.18 2.26,-0.35 3.42,-0.53c1.19,-0.17 2.38,-0.35 3.6,-0.53c1.75,-0.27 1.75,-0.27 3.53,-0.55c4.09,-0.61 8.19,-1.09 12.29,-1.66z"
         fill="currentColor"
         id="svg_31"
         transform="translate(46.4443359375,374.661865234375)"
      />
      <path
         d="m0,0c2.8,-0.33 4.56,-0.41 7.24,0.51c4.35,4.33 7.37,9.48 10,15c-7.25,2.01 -14.56,3.06 -22,4.12c-1.25,0.18 -2.51,0.37 -3.79,0.55c-3.07,0.45 -6.14,0.89 -9.21,1.33c-1.13,-1.44 -2.26,-2.88 -3.38,-4.32c-0.63,-0.8 -1.26,-1.6 -1.9,-2.43c-4.72,-6.19 -4.72,-6.19 -4.72,-9.25c9.22,-2.49 18.41,-3.79 27.76,-5.51z"
         fill="currentColor"
         id="svg_32"
         transform="translate(28.76171875,350.4921875)"
      />
      <path
         d="m0,0c1.98,0 3.96,0 6,0c0.13,9.03 0.26,18.07 0.39,27.1c0.06,4.2 0.12,8.4 0.18,12.6c0.3,20.43 0.51,40.86 0.43,61.3c4.95,0 9.9,0 15,0c0,0.33 0,0.66 0,1c-6.93,0 -13.86,0 -21,0c-0.87,-24.13 -1.09,-48.24 -1.06,-72.37c0,-0.74 0,-1.47 0,-2.23c0.01,-9.13 0.03,-18.27 0.06,-27.4z"
         fill="currentColor"
         id="svg_33"
         transform="translate(310,47)"
      />
      <path
         d="m0,0c1.65,0 3.3,0 5,0c0.33,33.66 0.66,67.32 1,102c-1.98,0 -3.96,0 -6,0c-0.93,-20.42 -1.16,-40.81 -1.13,-61.25c0.01,-4.19 0,-8.38 0,-12.56c-0.01,-3.26 -0.01,-6.52 0,-9.78c0,-1.54 0,-3.09 -0.01,-4.64c0,-2.13 0.01,-4.27 0.01,-6.4c0,-1.21 0,-2.42 0,-3.67c0.13,-2.7 0.13,-2.7 1.13,-3.7z"
         fill="currentColor"
         id="svg_34"
         transform="translate(317,46)"
      />
      <path
         d="m0,0c0.99,0.33 1.98,0.66 3,1c0,0.99 0,1.98 0,3c1.43,2.1 2.87,4.08 4.44,6.06c4.18,5.39 5.71,8.27 5.66,15.14c0,0.7 -0.01,1.41 -0.01,2.14c0,2.26 -0.01,4.52 -0.03,6.79c0,1.53 -0.01,3.06 -0.01,4.59c-0.01,3.76 -0.03,7.52 -0.05,11.28c-2.4,-2.33 -4.57,-4.6 -6.47,-7.35c-0.43,-0.6 -0.85,-1.21 -1.29,-1.83c-0.43,-0.62 -0.86,-1.24 -1.3,-1.88c-2.47,-3.56 -4.86,-6.86 -7.94,-9.94c-0.33,5.61 -0.66,11.22 -1,17c-0.33,0 -0.66,0 -1,0c-0.33,-8.91 -0.66,-17.82 -1,-27c3.46,-0.5 3.46,-0.5 7,-1c0,-5.94 0,-11.88 0,-18z"
         fill="currentColor"
         id="svg_35"
         transform="translate(350,454)"
      />
      <path
         d="m0,0c0.99,0.33 1.98,0.66 3,1c0.12,1.11 0.12,1.11 0.25,2.23c0.91,3.37 2.31,4.58 4.78,7.01c5.76,6.93 4.86,14.4 4.47,22.89c-0.04,1.54 -0.08,3.08 -0.11,4.63c-0.09,3.75 -0.22,7.49 -0.39,11.24c-2.5,-2.43 -4.74,-4.83 -6.76,-7.67c-0.48,-0.67 -0.96,-1.33 -1.45,-2.01c-0.73,-1.03 -0.73,-1.03 -1.48,-2.07c-1.74,-2.44 -3.51,-4.85 -5.31,-7.25c-0.33,0 -0.66,0 -1,0c-0.33,8.25 -0.66,16.5 -1,25c-0.33,0 -0.66,0 -1,0c-0.17,-5.11 -0.33,-10.22 -0.48,-15.33c-0.06,-1.74 -0.11,-3.47 -0.17,-5.21c-0.08,-2.5 -0.16,-4.99 -0.23,-7.49c-0.03,-0.78 -0.05,-1.56 -0.08,-2.37c-0.05,-1.86 -0.05,-3.73 -0.04,-5.6c0.33,-0.33 0.66,-0.66 1,-1c1.98,0 3.96,0 6,0c0,-5.94 0,-11.88 0,-18z"
         fill="currentColor"
         id="svg_36"
         transform="translate(405,445)"
      />
      <path
         d="m0,0c3,0 3,0 4.39,1.25c3.56,4.79 4.13,7.81 3.61,13.75c0.99,-0.21 1.98,-0.41 3,-0.62c3.08,-0.04 3.89,0.51 6.14,2.71c2.05,2.58 3.98,5.21 5.86,7.91c0.57,0.73 1.14,1.45 1.73,2.2c1.27,1.8 1.27,1.8 1.27,3.8c-8.6,2.32 -17.07,4 -26,4c0,-11.55 0,-23.1 0,-35z"
         fill="currentColor"
         id="svg_37"
         transform="translate(484,369)"
      />
      <path
         d="m0,0c0.99,0.33 1.98,0.66 3,1c0,0.99 0,1.98 0,3c1.45,1.72 2.93,3.41 4.43,5.08c6.18,7.59 5.81,15.27 5.63,24.67c0.01,1.58 0.01,3.17 0.02,4.75c0.02,3.83 -0.01,7.67 -0.08,11.5c-2.8,-2.66 -5.04,-5.33 -7.16,-8.55c-0.57,-0.84 -1.13,-1.69 -1.71,-2.56c-1.18,-1.77 -2.36,-3.55 -3.53,-5.33c-0.56,-0.84 -1.12,-1.68 -1.7,-2.54c-0.51,-0.77 -1.02,-1.55 -1.54,-2.34c-0.45,-0.55 -0.9,-1.11 -1.36,-1.68c-0.66,0 -1.32,0 -2,0c-0.33,-2.64 -0.66,-5.28 -1,-8c3.46,-0.5 3.46,-0.5 7,-1c0,-5.94 0,-11.88 0,-18z"
         fill="currentColor"
         id="svg_38"
         transform="translate(295,463)"
      />
      <path
         d="m0,0c0.33,0 0.66,0 1,0c0.04,1.04 0.04,1.04 0.08,2.1c0.11,3.22 0.24,6.43 0.36,9.65c0.04,1.09 0.08,2.18 0.12,3.31c0.12,3.31 0.28,6.63 0.44,9.94c0.05,1.12 0.1,2.24 0.15,3.4c0.07,1.07 0.13,2.14 0.2,3.24c0.05,0.96 0.1,1.92 0.16,2.91c0.57,2.83 1.43,3.54 3.49,5.45c0,0.99 0,1.98 0,3c-1.65,0 -3.3,0 -5,0c0,0.79 0.01,1.58 0.01,2.39c0.06,19.22 0.11,38.43 0.15,57.64c0.01,9.29 0.03,18.58 0.07,27.87c0.03,8.1 0.05,16.2 0.05,24.29c0.01,4.29 0.02,8.58 0.04,12.87c0.02,4.03 0.02,8.07 0.02,12.1c0,1.48 0.01,2.97 0.02,4.45c0.01,2.02 0.01,4.04 0,6.06c0,1.13 0.01,2.27 0.01,3.43c-0.41,3.19 -1.22,4.56 -3.37,6.9c-0.02,-16.93 -0.04,-33.87 -0.05,-50.8c-0.01,-7.86 -0.01,-15.72 -0.03,-23.58c-0.01,-6.85 -0.01,-13.7 -0.01,-20.55c-0.01,-3.63 -0.01,-7.26 -0.02,-10.89c0,-4.04 0,-8.09 0,-12.13c-0.01,-1.21 -0.01,-2.43 -0.01,-3.68c0,-1.09 0,-2.19 0,-3.31c0,-0.96 0,-1.92 0,-2.91c0.12,-2.15 0.12,-2.15 1.12,-3.15c0.12,-2.18 0.18,-4.36 0.21,-6.54c0.01,-0.68 0.02,-1.37 0.03,-2.07c0.03,-2.27 0.05,-4.53 0.08,-6.8c0.02,-1.57 0.04,-3.14 0.06,-4.7c0.05,-4.14 0.1,-8.27 0.15,-12.41c0.05,-4.21 0.11,-8.43 0.16,-12.65c0.11,-8.27 0.21,-16.55 0.31,-24.83z"
         fill="currentColor"
         id="svg_39"
         transform="translate(483,240)"
      />
      <path
         d="m0,0c0.99,0.33 1.98,0.66 3,1c-0.66,0 -1.32,0 -2,0c0.79,0.78 1.59,1.57 2.41,2.38c11.29,12.67 9.66,27.01 8.76,42.94c-0.08,1.32 -0.08,1.32 -0.17,2.68c-2.72,-2.6 -4.95,-5.18 -7.02,-8.33c-0.52,-0.8 -1.05,-1.6 -1.6,-2.42c-0.54,-0.83 -1.07,-1.65 -1.63,-2.5c-0.55,-0.84 -1.11,-1.68 -1.68,-2.55c-1.36,-2.06 -2.72,-4.13 -4.07,-6.2c-0.99,0.66 -1.98,1.32 -3,2c-0.33,-3.3 -0.66,-6.6 -1,-10c3.96,-0.5 3.96,-0.5 8,-1c0,-5.94 0,-11.88 0,-18z"
         fill="currentColor"
         id="svg_40"
         transform="translate(240,472)"
      />
      <path
         d="m0,0c1.32,1.65 2.64,3.3 4,5c0.62,0.64 1.25,1.28 1.89,1.94c7.29,8.35 6.17,18.59 6.11,29.06c0.01,1.34 0.02,2.68 0.04,4.03c0.02,2.66 0.01,5.31 -0.04,7.97c-3.19,-3 -5.64,-6.17 -8.11,-9.79c-0.37,-0.54 -0.74,-1.09 -1.13,-1.65c-0.77,-1.14 -1.55,-2.29 -2.32,-3.43c-1.19,-1.76 -2.39,-3.51 -3.59,-5.26c-0.76,-1.12 -1.52,-2.23 -2.27,-3.35c-0.69,-1.01 -1.38,-2.02 -2.08,-3.06c-1.5,-2.46 -1.5,-2.46 -1.5,-4.46c2.97,-0.33 5.94,-0.66 9,-1c0,-5.28 0,-10.56 0,-16z"
         fill="currentColor"
         id="svg_41"
         transform="translate(185,483)"
      />
      <path
         d="m0,0c3.04,2.87 5.41,5.81 7.69,9.31c0.6,0.91 1.2,1.81 1.82,2.74c3.54,7.02 2.61,15.21 2.55,22.89c0,1.16 -0.01,2.32 -0.01,3.52c-0.01,2.84 -0.03,5.69 -0.05,8.54c-8.02,-7.65 -10.89,-15.12 -11.37,-26.06c-0.07,-1.03 -0.14,-2.05 -0.21,-3.11c-0.37,-5.95 -0.48,-11.87 -0.42,-17.83z"
         fill="currentColor"
         id="svg_42"
         transform="translate(63,455)"
      />
      <path
         d="m0,0c7.9,7.62 11.69,14.51 12,25.42c0.02,2.19 0.01,4.39 0,6.58c0.01,1.48 0.02,2.95 0.04,4.43c0.03,3.52 0.01,7.04 -0.04,10.57c-10.67,-10.18 -11.66,-21.26 -12.06,-35.23c-0.08,-3.92 -0.06,-7.84 0.06,-11.77z"
         fill="currentColor"
         id="svg_43"
         transform="translate(47,430)"
      />
      <path
         d="m0,0c8.46,8.2 11.71,15.19 12,26.85c0.02,2.38 0.02,4.76 0,7.15c0.01,1.37 0.02,2.74 0.04,4.11c0.02,2.97 0.01,5.93 -0.04,8.89c-1.37,-1.64 -2.69,-3.31 -4,-5c-0.77,-0.97 -0.77,-0.97 -1.55,-1.95c-4.35,-5.89 -5.47,-10.69 -5.82,-17.92c-0.07,-0.92 -0.14,-1.84 -0.21,-2.78c-0.45,-6.45 -0.49,-12.89 -0.42,-19.35z"
         fill="currentColor"
         id="svg_44"
         transform="translate(31,405)"
      />
      <path
         d="m0,0c8.12,7.97 10.81,13.33 10.98,24.9c0.01,0.69 0.01,1.39 0.02,2.1c0.01,0.79 0.02,1.58 0.03,2.39c0.04,5.21 0.02,10.41 -0.03,15.61c-4.94,-6.12 -4.94,-6.12 -7.19,-9.25c-0.51,-0.69 -1.02,-1.37 -1.54,-2.08c-3.33,-7.01 -2.4,-15.65 -2.33,-23.23c0,-1.01 0.01,-2.02 0.01,-3.06c0.01,-2.46 0.03,-4.92 0.05,-7.38z"
         fill="currentColor"
         id="svg_45"
         transform="translate(16,382)"
      />
      <path
         d="m0,0c2.45,2.28 4.28,4.71 6.13,7.5c0.51,0.77 1.03,1.55 1.57,2.34c2.41,4 2.48,7.43 2.62,12.02c0.02,0.66 0.04,1.32 0.06,2c0.06,2.11 0.12,4.22 0.18,6.33c0.05,1.43 0.09,2.86 0.13,4.29c0.11,3.51 0.21,7.01 0.31,10.52c-7.37,-7.27 -10.65,-13.65 -10.99,-24.11c0,-1.28 -0.01,-2.57 -0.01,-3.89c-0.01,-1.56 -0.03,-3.12 -0.04,-4.68c-0.03,-4.1 0,-8.21 0.04,-12.32z"
         fill="currentColor"
         id="svg_46"
         transform="translate(1,358)"
      />
      <path
         d="m0,0c1.65,0 3.3,0 5,0c0.93,18.35 1.12,36.63 1,55c-5.29,-5.12 -5.26,-8.32 -5.56,-15.44c-0.04,-0.95 -0.09,-1.91 -0.13,-2.89c-0.49,-12.22 -0.4,-24.44 -0.31,-36.67z"
         fill="currentColor"
         id="svg_47"
         transform="translate(90,78)"
      />
      <path
         d="m0,0c1.32,0 2.64,0 4,0c0.7,15.68 1.15,31.31 1,47c-2.74,-2.11 -4.62,-3.61 -5.55,-6.99c-0.29,-2.68 -0.4,-5.31 -0.45,-8.01c-0.03,-1.22 -0.05,-2.44 -0.08,-3.7c-0.05,-3.41 -0.06,-6.83 -0.05,-10.24c0.01,-2.15 0,-4.3 -0.01,-6.44c0,-1.36 0.01,-2.73 0.01,-4.09c0,-1.23 0,-2.46 0,-3.73c0.13,-2.8 0.13,-2.8 1.13,-3.8z"
         fill="currentColor"
         id="svg_48"
         transform="translate(86,79)"
      />
      <path
         d="m0,0c0.67,10.02 1.16,19.95 1,30c-1.69,-1.64 -3.35,-3.31 -5,-5c-0.81,-0.79 -0.81,-0.79 -1.64,-1.61c-2.1,-3.7 -1.87,-7.27 -1.86,-11.45c-0.03,-0.82 -0.06,-1.63 -0.09,-2.47c0,-2.27 0.06,-4.26 0.59,-6.47c2.43,-2.08 3.79,-3 7,-3z"
         fill="currentColor"
         id="svg_49"
         transform="translate(80,82)"
      />
      <path
         d="m0,0c1.25,12.66 1.1,25.3 1,38c-2.77,-2.25 -3.9,-3.49 -4.61,-7.04c-0.05,-1.18 -0.09,-2.37 -0.14,-3.58c-0.06,-1.32 -0.11,-2.63 -0.17,-3.99c-0.17,-7.46 -0.16,-14.92 -0.08,-22.39c3,-1 3,-1 4,-1z"
         fill="currentColor"
         id="svg_50"
         transform="translate(84,80)"
      />
      <path
         d="m0,0c0.33,0 0.66,0 1,0c0.03,0.69 0.05,1.39 0.08,2.1c0.11,3.22 0.24,6.43 0.36,9.65c0.04,1.09 0.08,2.18 0.12,3.31c0.12,3.31 0.28,6.63 0.44,9.94c0.05,1.12 0.1,2.24 0.15,3.4c0.07,1.07 0.13,2.14 0.2,3.24c0.05,0.96 0.1,1.92 0.16,2.91c0.57,2.83 1.43,3.54 3.49,5.45c0,0.99 0,1.98 0,3c-1.65,0 -3.3,0 -5,0c0,17.16 0,34.32 0,52c-0.33,0 -0.66,0 -1,0c0,-31.35 0,-62.7 0,-95z"
         fill="currentColor"
         id="svg_51"
         transform="translate(483,240)"
      />
      <path
         d="m0,0c3,0 3,0 4.39,1.25c3.56,4.79 4.13,7.81 3.61,13.75c0.66,0.33 1.32,0.66 2,1c-4.95,0.5 -4.95,0.5 -10,1c0,-5.61 0,-11.22 0,-17z"
         fill="currentColor"
         id="svg_52"
         transform="translate(484,369)"
      />
      <path
         d="m0,0c1.56,1.72 3.05,3.5 4.5,5.31c0.79,0.99 1.59,1.97 2.41,2.99c2.09,2.7 2.09,2.7 4.09,5.7c-1.65,1.32 -3.3,2.64 -5,4c-1.84,-2.1 -3.67,-4.2 -5.5,-6.31c-0.52,-0.6 -1.05,-1.19 -1.59,-1.81c-3.91,-4.54 -3.91,-4.54 -3.91,-7.88c3,-2 3,-2 5,-2z"
         fill="currentColor"
         id="svg_53"
         transform="translate(504,255)"
      />
      <path
         d="m0,0c4.08,1.55 6.08,4.25 8.75,7.63c0.8,1 1.6,2 2.42,3.03c0.91,1.16 0.91,1.16 1.83,2.34c-0.99,1.32 -1.98,2.64 -3,4c-4.04,-1.55 -6.08,-4.18 -8.75,-7.5c-1.2,-1.47 -1.2,-1.47 -2.42,-2.97c-1.83,-2.53 -1.83,-2.53 -1.83,-4.53c0.99,-0.66 1.98,-1.32 3,-2z"
         fill="currentColor"
         id="svg_54"
         transform="translate(497,259)"
      />
      <path
         d="m0,0c4.25,4.12 8.14,8.51 12,13c-0.66,1.65 -1.32,3.3 -2,5c-4.08,-1.55 -6.08,-4.25 -8.75,-7.62c-0.8,-1.01 -1.6,-2.01 -2.42,-3.04c-0.61,-0.77 -1.21,-1.55 -1.83,-2.34c1.87,-3.87 1.87,-3.87 3,-5z"
         fill="currentColor"
         id="svg_55"
         transform="translate(506,250)"
      />
      <path
         d="m0,0c0.66,0 1.32,0 2,0c4,4.47 4,4.47 4,7c0.66,0 1.32,0 2,0c2.19,2.06 2.19,2.06 4,5c-0.25,3.81 -0.25,3.81 -1,7c-3.77,-2.85 -6.95,-5.88 -10,-9.5c-0.62,-0.73 -1.24,-1.46 -1.88,-2.22c-1.12,-2.28 -1.12,-2.28 -0.31,-5.06c0.39,-0.73 0.79,-1.47 1.19,-2.22z"
         fill="currentColor"
         id="svg_56"
         transform="translate(511,240)"
      />
      <path
         d="m0,0c3.98,0.19 6.24,0.88 8.99,3.69c0.98,1.09 1.94,2.19 2.89,3.31c0.49,0.56 0.99,1.12 1.5,1.7c3.62,4.11 3.62,4.11 3.62,5.3c-3.63,0 -7.26,0 -11,0c1.32,-0.66 2.64,-1.32 4,-2c-0.72,-0.78 -1.44,-1.56 -2.19,-2.37c-0.94,-1.02 -1.87,-2.05 -2.81,-3.07c-0.72,-0.77 -0.72,-0.77 -1.45,-1.56c-3.55,-3.89 -3.55,-3.89 -3.55,-5z"
         fill="currentColor"
         id="svg_57"
         transform="translate(520,127)"
      />
      <path
         d="m0,0c1.7,1.64 3.35,3.31 5,5c1.06,1.07 1.06,1.07 2.15,2.16c1.1,1.16 1.1,1.16 2.23,2.34c1.06,1.1 1.06,1.1 2.14,2.22c1.48,2.28 1.48,2.28 1.21,5.06c-0.24,0.73 -0.48,1.47 -0.73,2.22c-1.71,-1.62 -3.37,-3.29 -5,-5c0,-0.66 0,-1.32 0,-2c-0.66,0 -1.32,0 -2,0c-4,-4.47 -4,-4.47 -4,-7c-0.66,-0.33 -1.32,-0.66 -2,-1c0.33,-1.32 0.66,-2.64 1,-4z"
         fill="currentColor"
         id="svg_58"
         transform="translate(512,235)"
      />
      <path
         d="m0,0c2.14,-0.37 2.14,-0.37 5,0c2.17,1.94 3.95,3.75 5.81,5.94c0.5,0.56 1.01,1.13 1.52,1.71c3.67,4.16 3.67,4.16 3.67,5.35c-2.56,0.5 -2.56,0.5 -6,0c-3.6,-3.14 -6.48,-6.45 -8,-11c-0.66,0 -1.32,0 -2,0c0,-0.66 0,-1.32 0,-2z"
         fill="currentColor"
         id="svg_59"
         transform="translate(515,127)"
      />
      <path
         d="m0,0c0.66,0 1.32,0 2,0c0.33,7.59 0.66,15.18 1,23c-4,-4 -4,-4 -4.47,-6.09c0.01,-0.73 0.03,-1.45 0.04,-2.2c0.01,-0.8 0.02,-1.59 0.03,-2.41c0.03,-0.82 0.06,-1.64 0.09,-2.49c0.01,-0.83 0.02,-1.66 0.03,-2.52c0.11,-6.12 0.11,-6.12 1.28,-7.29z"
         fill="currentColor"
         id="svg_60"
         transform="translate(74,84)"
      />
      <path
         d="m0,0c3.93,3.7 6.95,7.55 10,12c-1.98,0.33 -3.96,0.66 -6,1c-2.21,-2.21 -3.87,-3.93 -4.27,-7.11c0.02,-1.97 0.14,-3.93 0.27,-5.89z"
         fill="currentColor"
         id="svg_61"
         transform="translate(485,269)"
      />
      <path
         d="m0,0c3.84,1.57 6.16,4.02 9,7c0.93,0.93 1.86,1.86 2.81,2.81c0.72,0.72 1.45,1.45 2.19,2.19c-0.33,0.66 -0.66,1.32 -1,2c-1.12,-1.12 -2.24,-2.24 -3.36,-3.36c-1.24,-1.24 -2.5,-2.48 -3.75,-3.72c-0.73,-0.71 -1.45,-1.43 -2.2,-2.17c-0.7,-0.69 -1.4,-1.37 -2.12,-2.08c-1.57,-1.67 -1.57,-1.67 -1.57,-2.67z"
         fill="currentColor"
         id="svg_62"
         transform="translate(531,130)"
      />
      <path
         d="m0,0c4.88,4.75 4.88,4.75 6,7c-1.98,0.33 -3.96,0.66 -6,1c0,-2.64 0,-5.28 0,-8z"
         fill="currentColor"
         id="svg_63"
         transform="translate(484,369)"
      />
      <path
         d="m0,0c1.98,0.99 1.98,0.99 4,2c0,0.99 0,1.98 0,3c-1.32,0 -2.64,0 -4,0c0,-1.65 0,-3.3 0,-5z"
         fill="currentColor"
         id="svg_64"
         transform="translate(485,278)"
      />
      <path fill="currentColor" id="svg_65" transform="translate(0,0)" />
      <path fill="currentColor" id="svg_66" transform="translate(0,0)" />
   </g>
</svg>
