<!-- https://pip-boy.com/ -->
<?xml version="1.0" standalone="no"?>
<!DOCTYPE svg PUBLIC "-//W3C//DTD SVG 20010904//EN" "http://www.w3.org/TR/2001/REC-SVG-20010904/DTD/svg10.dtd">
<svg version="1.0" xmlns="http://www.w3.org/2000/svg" width="900.000000pt" height="720.000000pt" viewBox="0 0 900.000000 720.000000" preserveAspectRatio="xMidYMid meet">
	<title>Pip-Boy 3000 Mk V</title>
	<g transform="translate(0.000000,720.000000) scale(0.100000,-0.100000)" fill="currentColor" stroke="currentColor" stroke-width="100">
		<path d="M7055 6760 c-11 -5 -31 -9 -45 -10 -14 0 -43 -9 -65 -20 -22 -11 -43
-19 -47 -20 -21 -1 -111 -74 -173 -139 -81 -86 -235 -240 -259 -259 -29 -23
-108 -40 -218 -47 -94 -6 -114 -4 -162 14 -31 11 -64 25 -73 30 -10 6 -47 18
-83 27 -57 15 -149 18 -792 22 l-727 4 -28 25 c-15 14 -45 34 -68 44 -37 17
-81 19 -688 19 l-648 0 -55 -26 c-30 -14 -54 -29 -54 -33 0 -28 -59 -31 -720
-34 -734 -3 -689 0 -800 -60 -120 -64 -203 -140 -244 -223 -37 -73 -40 -75
-125 -60 -61 10 -75 16 -86 37 -16 29 -104 54 -225 64 -41 3 -79 10 -84 15 -6
6 -25 10 -43 10 -38 0 -94 -52 -119 -110 -9 -19 -22 -50 -30 -68 -8 -18 -14
-45 -14 -60 0 -15 -6 -38 -13 -52 -8 -15 -17 -56 -20 -93 -3 -37 -11 -75 -16
-86 -6 -11 -12 -89 -13 -174 l-3 -156 33 -34 c31 -32 38 -34 120 -40 48 -4
103 -11 122 -16 19 -6 107 -12 195 -14 l160 -4 3 -114 c1 -63 0 -125 -3 -138
l-6 -24 -135 7 c-113 6 -142 5 -185 -9 -71 -24 -124 -70 -162 -140 l-22 -40
-3 -1893 c-1 -1176 1 -1912 7 -1945 31 -167 46 -197 122 -251 l48 -35 2413 -2
c1327 -1 2422 -1 2434 0 11 0 52 29 91 64 116 104 127 111 163 124 27 10 288
13 1148 13 l1113 0 42 25 c76 44 116 131 146 310 14 89 16 219 14 1140 -1 691
-5 1062 -12 1105 -7 42 -11 297 -11 712 l0 648 23 15 c21 14 28 14 60 0 26
-11 73 -15 169 -15 132 0 133 0 178 31 49 34 110 135 110 186 1 15 7 39 15 53
8 14 14 47 15 74 0 27 7 93 16 146 24 156 3 530 -34 597 -7 12 -12 31 -12 42
0 19 -22 78 -41 111 -5 8 -12 21 -16 29 -9 19 -33 42 -67 64 -30 20 -23 20
-246 -2 -63 -7 -123 -10 -135 -7 -13 3 -32 31 -55 78 -28 59 -35 88 -38 148
-2 41 -8 79 -13 84 -5 6 -9 16 -9 24 0 25 -42 106 -79 150 -38 46 -123 112
-144 112 -7 0 -22 7 -34 15 -12 9 -44 21 -70 27 -58 14 -659 21 -688 8z m680
-67 c11 -6 41 -18 66 -27 112 -40 219 -187 226 -311 4 -62 29 -159 48 -185 26
-35 75 -131 75 -148 0 -10 5 -23 11 -29 5 -5 14 -37 20 -69 5 -32 13 -81 18
-109 14 -70 14 -691 0 -735 -5 -19 -14 -55 -19 -80 -11 -58 -34 -123 -65 -181
l-25 -47 0 -642 c0 -434 3 -648 11 -661 5 -11 13 -76 16 -145 l6 -124 -35 0
c-20 0 -41 7 -49 16 -15 18 -16 103 -1 130 23 40 -72 154 -128 154 -14 0 -34
-7 -44 -15 -34 -26 -80 -19 -110 17 -14 17 -26 35 -26 40 0 4 -9 17 -20 28
-16 16 -33 20 -88 20 -64 0 -70 -2 -99 -32 -17 -18 -36 -43 -42 -55 -16 -31
-53 -38 -92 -19 -54 27 -74 21 -139 -44 -61 -61 -72 -88 -45 -110 11 -9 15
-27 13 -59 -3 -43 -6 -47 -60 -83 -51 -34 -57 -42 -63 -82 -13 -84 3 -116 83
-169 37 -24 42 -32 42 -65 0 -21 -7 -48 -16 -61 -15 -22 -15 -26 5 -65 30 -58
40 -69 89 -96 41 -23 44 -23 71 -7 49 29 86 22 117 -20 47 -66 74 -83 126 -83
53 0 115 25 123 49 3 9 16 28 30 44 28 30 59 34 111 15 41 -14 78 0 125 48 34
35 34 36 31 118 -2 82 -2 82 33 116 21 20 38 30 43 24 12 -14 -3 -1758 -16
-1820 -6 -29 -15 -60 -20 -70 -6 -11 -18 -38 -27 -60 -9 -23 -31 -52 -49 -65
l-31 -24 -1115 -2 c-613 -1 -1128 -5 -1144 -9 -39 -9 -82 -39 -167 -116 -39
-35 -76 -66 -82 -70 -7 -3 -133 -7 -282 -9 l-270 -3 4 104 c1 58 8 125 13 150
6 25 13 97 17 160 l6 115 280 -4 c337 -4 341 -3 444 88 40 35 76 72 79 80 3 9
49 61 102 116 109 112 216 227 304 328 54 61 63 67 98 67 50 0 68 33 68 127 1
71 -2 65 81 200 70 115 69 106 72 720 2 408 6 556 14 564 7 7 25 13 40 15 63
6 143 24 172 38 16 9 35 16 41 16 6 0 38 20 70 45 58 44 117 116 150 181 27
51 53 176 47 220 -12 81 -28 160 -37 179 -5 11 -19 44 -31 73 -12 28 -25 52
-29 52 -4 0 -12 11 -18 25 -22 48 -100 120 -164 152 -112 55 -140 63 -238 67
-52 2 -98 5 -102 5 -4 1 -9 283 -11 629 -2 450 -6 648 -15 702 -13 72 -44 154
-63 166 -14 8 0 24 22 24 11 0 32 -6 48 -14 29 -15 115 -31 243 -45 79 -9 127
-32 148 -71 18 -34 10 -49 -55 -97 -48 -35 -65 -53 -63 -68 5 -32 33 -29 73 9
21 20 41 33 46 30 5 -3 9 -273 9 -609 0 -540 2 -603 16 -609 27 -11 35 -7 45
24 l11 30 598 0 c493 0 600 2 609 14 28 34 -5 36 -615 38 l-599 3 -5 615 c-4
547 -7 619 -22 650 -9 20 -25 42 -35 51 -26 22 -118 49 -168 49 -23 0 -64 7
-91 15 -27 8 -70 15 -96 15 -93 0 -218 40 -218 70 0 4 56 10 125 13 l124 6 53
39 c29 21 114 103 188 182 74 78 153 154 175 169 53 34 106 60 126 61 8 0 19
4 25 9 16 17 64 19 384 17 219 -1 321 -5 335 -13z m-3472 -306 c85 -30 120
-67 177 -187 6 -13 84 -16 571 -22 477 -5 571 -9 608 -22 24 -9 51 -16 61 -16
21 0 82 -27 125 -55 71 -46 155 -160 155 -210 0 -7 7 -26 15 -41 8 -16 15 -50
15 -76 0 -26 4 -58 10 -72 5 -14 14 -81 19 -149 6 -68 15 -146 20 -173 6 -27
12 -116 15 -199 3 -82 10 -204 16 -270 13 -158 12 -1277 -1 -1425 -6 -63 -12
-162 -15 -220 -3 -58 -11 -132 -19 -165 -7 -33 -16 -88 -19 -123 -3 -35 -10
-71 -16 -82 -5 -10 -10 -34 -10 -52 0 -40 -40 -162 -71 -218 -4 -8 -17 -34
-29 -57 -30 -59 -146 -163 -183 -163 -10 0 -28 -5 -40 -12 -12 -6 -42 -15 -67
-19 -25 -4 -74 -12 -110 -18 -284 -45 -3394 -45 -3625 0 -139 27 -167 36 -245
73 -53 25 -178 149 -187 185 -3 14 -9 31 -14 36 -10 13 -38 90 -49 135 -5 19
-13 53 -19 75 -25 99 -41 186 -41 225 0 23 -6 81 -14 129 -31 183 -39 357 -43
931 -3 387 -1 629 7 715 6 72 13 168 15 215 4 77 14 166 45 425 21 174 29 220
39 248 6 16 11 39 11 52 0 23 9 49 51 140 24 53 82 120 133 153 56 36 114 62
140 62 11 0 39 7 62 15 32 11 142 15 510 20 258 3 484 8 502 11 27 4 36 13 57
55 32 62 95 127 132 134 16 3 42 10 58 14 17 5 296 9 620 10 464 1 598 -2 628
-12z m-1471 -89 c-5 -7 -12 -24 -14 -38 l-3 -25 -490 -5 c-269 -3 -495 -8
-501 -12 -6 -4 -35 -12 -65 -17 -133 -24 -198 -58 -283 -151 -64 -70 -117
-186 -131 -285 -4 -27 -11 -57 -15 -65 -4 -8 -11 -55 -15 -104 -3 -49 -11
-100 -16 -113 -5 -13 -9 -49 -9 -78 0 -30 -7 -103 -15 -162 -28 -205 -39 -477
-39 -1038 -1 -545 10 -834 35 -965 6 -30 15 -95 19 -145 14 -146 48 -322 71
-367 5 -10 9 -23 9 -29 0 -11 15 -46 59 -138 19 -40 138 -171 155 -171 7 0 22
-8 34 -18 12 -10 40 -24 64 -31 24 -7 57 -19 73 -26 81 -38 199 -45 927 -56
914 -14 2741 -1 2828 21 19 5 66 12 104 16 38 3 81 13 95 20 14 8 34 14 44 14
9 0 36 13 59 30 22 16 45 30 49 30 11 0 83 79 112 122 76 116 115 249 152 521
8 60 16 116 19 125 3 10 8 87 11 172 3 85 10 182 15 215 12 77 11 1143 -1
1255 -5 47 -13 184 -19 305 -6 121 -14 258 -19 305 -5 47 -12 114 -15 150 -10
112 -31 248 -38 256 -5 4 -8 18 -8 31 0 63 -86 205 -157 260 -52 40 -90 63
-104 63 -6 0 -25 6 -42 14 -85 36 -145 40 -700 45 -592 6 -566 4 -567 59 l0
23 613 -4 c726 -5 827 -12 930 -63 16 -8 36 -14 45 -14 9 0 45 -18 79 -40 92
-59 163 -157 163 -225 0 -20 4 -44 9 -54 6 -10 11 -300 13 -685 2 -547 5 -670
17 -679 7 -6 73 -16 145 -23 73 -6 141 -16 152 -21 10 -6 37 -19 59 -29 52
-24 165 -137 189 -189 10 -22 23 -48 27 -57 37 -75 49 -245 23 -327 -43 -140
-157 -251 -289 -283 -105 -25 -183 -36 -229 -31 -36 3 -57 0 -71 -10 -20 -15
-20 -27 -20 -561 0 -420 -3 -548 -13 -558 -6 -6 -12 -33 -12 -58 0 -25 -7 -56
-16 -68 -15 -21 -20 -22 -199 -22 -154 0 -186 -3 -199 -16 -12 -12 -16 -37
-16 -104 l0 -89 -31 -16 c-29 -16 -61 -21 -239 -44 -323 -41 -331 -41 -2035
-41 -1537 0 -1754 3 -1800 20 -15 6 -42 10 -62 10 -33 0 -72 13 -136 46 -16 8
-33 14 -37 14 -21 0 -111 69 -180 139 -89 90 -180 224 -180 265 0 9 -4 16 -8
16 -5 0 -18 35 -31 78 -12 42 -26 86 -32 97 -5 11 -13 49 -19 85 -6 36 -14 88
-19 115 -6 28 -10 78 -10 113 -1 35 -6 72 -12 83 -19 37 -31 498 -29 1194 1
690 9 1060 24 1084 5 7 12 78 17 157 8 135 13 178 39 314 20 104 27 125 59
185 76 140 246 259 394 275 38 4 71 11 74 14 4 3 274 6 601 6 474 0 592 -3
584 -12z m-2102 -238 c126 -16 142 -23 138 -58 -3 -31 -4 -31 -128 -7 -47 9
-111 19 -142 23 -31 4 -59 10 -62 13 -3 3 2 15 10 28 14 19 23 22 53 18 20 -3
79 -10 131 -17z m7871 1 c16 -13 21 -23 14 -30 -6 -5 -85 -12 -182 -15 -143
-4 -174 -2 -184 10 -22 26 7 39 104 45 191 12 223 10 248 -10z m-8030 -84 c19
-8 79 -20 134 -27 125 -16 137 -22 133 -63 -3 -30 -6 -32 -38 -31 -57 2 -184
24 -194 34 -6 6 -29 10 -52 10 -75 0 -92 20 -58 68 18 26 29 27 75 9z m8087 1
c16 -16 15 -67 0 -73 -11 -4 -113 -10 -317 -18 -51 -2 -55 -1 -64 26 -5 17 -6
32 0 38 4 4 67 10 138 13 72 2 141 9 155 15 34 14 74 13 88 -1z m-7673 -14
c100 -15 95 -13 95 -44 0 -15 -6 -41 -14 -57 -17 -34 -35 -171 -50 -390 -8
-120 -15 -166 -26 -176 -12 -12 -30 -12 -97 -4 l-83 10 1 61 c0 34 5 84 10
111 5 28 14 89 19 138 5 48 14 96 20 106 5 11 10 40 10 64 0 25 7 61 15 80 8
20 15 52 15 70 0 41 8 50 35 42 11 -4 34 -9 50 -11z m-390 -130 c39 -9 88 -18
110 -20 110 -13 106 -11 103 -57 l-3 -42 -70 4 c-38 2 -90 10 -115 17 -25 8
-63 14 -85 14 -68 0 -85 9 -85 42 0 48 17 71 48 63 15 -3 59 -13 97 -21z
m8108 -29 c4 -26 6 -49 5 -51 -4 -3 -352 -27 -382 -26 -25 1 -36 19 -36 63 0
33 3 37 31 43 17 3 75 7 128 7 53 1 125 5 161 9 36 4 69 6 75 5 5 -1 13 -23
18 -50z m-8143 -114 c36 -6 81 -15 100 -21 19 -5 51 -10 70 -10 55 0 63 -10
53 -61 -7 -35 -13 -44 -29 -42 -10 1 -66 7 -123 13 -58 6 -109 14 -115 18 -6
3 -29 9 -51 12 -35 4 -40 9 -43 34 -2 15 -1 40 3 53 5 22 10 24 38 19 18 -3
61 -10 97 -15z m8166 -25 c3 -13 4 -38 2 -57 l-3 -34 -208 -3 -208 -2 3 52 3
53 135 5 c286 12 269 13 276 -14z m-8173 -142 c32 -8 89 -14 125 -14 82 0 94
-7 90 -51 -3 -30 -7 -34 -35 -37 -17 -2 -65 4 -107 12 -41 9 -102 16 -135 16
-41 0 -65 5 -75 16 -19 18 -19 14 -5 53 12 35 18 35 142 5z m8175 -57 c6 -66
4 -66 -216 -64 l-197 2 -3 39 c-6 69 -14 67 210 64 l203 -3 3 -38z m-8168 -77
c173 -18 203 -28 198 -63 -2 -18 -11 -23 -48 -25 -24 -2 -81 2 -125 9 -44 6
-97 14 -118 16 -29 4 -41 12 -52 34 -23 43 -19 52 18 45 17 -3 75 -10 127 -16z
m8168 -60 c2 -12 1 -38 -3 -56 l-6 -34 -198 0 c-224 0 -227 1 -215 67 4 21 8
40 9 43 2 3 95 5 207 4 l203 -1 3 -23z m-25 -159 c7 -7 -5 -87 -15 -96 -2 -2
-88 0 -193 3 l-190 7 -9 27 c-7 20 -5 33 6 50 l16 24 188 -4 c104 -2 193 -7
197 -11z m-35 -174 c6 -53 -2 -55 -201 -52 -100 1 -185 3 -189 4 -11 1 -10 25
2 55 l9 25 188 -2 188 -2 3 -28z m-7688 -102 c1 -5 1 -302 1 -660 0 -689 8
-1002 33 -1230 19 -173 51 -340 76 -400 5 -11 12 -31 15 -45 24 -96 126 -268
219 -369 70 -76 268 -201 318 -201 8 0 18 -4 24 -10 5 -5 34 -12 64 -14 30 -3
79 -9 109 -15 29 -6 116 -11 192 -11 77 0 139 -3 139 -6 0 -3 -15 -24 -34 -47
-67 -83 -69 -94 -68 -282 1 -93 2 -192 4 -220 l3 -50 -70 3 c-38 2 -88 8 -110
14 -22 5 -65 14 -95 19 -30 6 -59 14 -64 20 -6 5 -22 9 -37 9 -15 0 -32 7 -39
15 -7 8 -21 15 -32 15 -11 0 -40 12 -66 27 -26 16 -54 33 -64 38 -217 128
-423 299 -641 534 -46 50 -167 206 -167 216 0 4 -13 24 -28 44 -15 20 -37 54
-47 76 -11 22 -25 47 -31 55 -6 8 -22 52 -37 96 l-27 81 0 1057 c0 640 4 1063
9 1074 6 9 12 29 15 43 10 48 81 111 145 129 40 11 291 7 291 -5z m7628 0 c2
-2 -1 -13 -8 -24 -10 -20 -19 -21 -184 -21 -95 0 -175 3 -179 6 -3 4 0 16 8
28 14 20 20 21 187 18 95 -2 174 -5 176 -7z m-2135 -1410 c-2 -22 -6 -278 -11
-570 -8 -478 -10 -534 -27 -570 -57 -127 -56 -126 -71 -114 -18 15 -18 51 2
97 35 81 43 220 44 713 0 262 3 479 7 483 4 4 19 6 33 4 23 -3 25 -7 23 -43z
m1234 39 c12 -3 25 -16 29 -28 3 -11 17 -36 31 -53 21 -29 29 -33 72 -33 27 0
61 7 77 15 25 13 31 13 54 -2 42 -26 60 -55 48 -76 -5 -11 -11 -46 -11 -78 -2
-56 0 -59 38 -94 24 -20 50 -35 66 -35 36 0 49 -18 49 -67 0 -32 -5 -45 -17
-50 -25 -9 -95 -63 -113 -88 -22 -29 -29 -71 -19 -115 11 -48 0 -81 -37 -105
-26 -16 -31 -17 -68 -3 -60 22 -99 13 -141 -33 -19 -22 -35 -45 -35 -53 0 -16
-68 -31 -99 -21 -10 3 -32 22 -47 43 -61 80 -110 98 -168 62 -41 -25 -62 -18
-95 29 -25 35 -26 49 -6 87 31 61 15 108 -55 158 -28 20 -55 47 -60 61 -14 36
5 76 48 103 46 28 82 79 82 115 0 15 -7 44 -16 66 l-16 40 35 36 c40 41 46 42
95 13 36 -20 39 -20 67 -5 17 9 37 19 45 22 8 4 27 26 42 51 25 40 31 44 65
44 21 0 48 -3 60 -6z m-7167 -1118 c0 -7 21 -53 46 -102 135 -258 511 -636
814 -820 36 -21 67 -42 68 -46 2 -5 12 -8 22 -8 10 0 25 -6 32 -13 7 -8 31
-22 53 -31 22 -10 54 -24 70 -32 72 -34 207 -64 334 -72 l94 -7 4 -240 c2
-132 5 -258 6 -280 l2 -40 -713 -3 -712 -2 -43 39 c-49 45 -65 88 -79 211 -9
79 -27 1430 -19 1457 4 16 21 7 21 -11z m5758 -163 c5 -10 6 -73 3 -141 -5
-93 -10 -125 -21 -132 -25 -16 -299 -9 -316 7 -17 17 -20 233 -4 264 10 18 23
19 170 19 142 0 160 -2 168 -17z m-394 -245 c3 -13 6 -38 6 -55 l0 -33 130 0
c72 0 130 -4 130 -9 0 -5 -48 -58 -107 -118 -58 -59 -135 -143 -170 -185 -36
-43 -69 -78 -74 -78 -6 0 -8 29 -4 73 5 63 3 77 -18 111 -13 22 -45 58 -71 80
l-48 41 -97 0 -98 0 -47 -39 c-74 -61 -96 -102 -96 -186 0 -60 4 -76 29 -117
18 -29 51 -62 81 -82 50 -31 56 -33 130 -29 68 3 81 6 102 29 13 14 31 28 41
32 9 3 17 11 17 17 0 5 5 10 10 10 23 0 6 -25 -56 -86 -37 -35 -74 -64 -83
-64 -9 0 -21 -4 -26 -9 -6 -5 -135 -11 -290 -12 l-280 -3 -3 32 c-2 17 4 52
12 77 21 60 21 227 0 335 -15 82 -42 137 -83 174 -11 11 -21 23 -21 28 0 4 73
8 163 8 89 0 207 5 262 11 55 5 147 14 205 19 132 12 266 33 276 43 4 4 22 7
40 7 24 0 33 -5 38 -22z m-1092 -76 c7 -7 19 -12 28 -12 31 0 110 -90 110
-126 0 -8 5 -25 11 -36 7 -14 11 -82 10 -188 -1 -173 -11 -231 -49 -273 -30
-35 -121 -97 -140 -97 -10 0 -24 -6 -31 -12 -8 -9 -57 -13 -167 -14 -159 0
-179 -5 -172 -40 3 -17 16 -19 153 -22 168 -3 212 7 298 66 26 18 52 30 57 27
13 -8 1 -151 -16 -194 -8 -18 -14 -44 -14 -56 0 -68 -82 -175 -166 -215 -38
-19 -58 -20 -250 -18 l-209 3 4 446 c2 322 0 452 -8 468 l-12 21 -695 0 c-460
0 -702 -4 -715 -10 -18 -10 -19 -26 -19 -470 0 -361 -3 -460 -12 -461 -7 -1
-105 0 -216 1 -231 2 -252 7 -336 81 -96 85 -112 132 -121 352 -7 172 -2 198
29 140 17 -33 102 -123 115 -123 5 0 16 -6 23 -13 34 -32 112 -47 246 -47 114
0 134 2 139 16 15 40 -6 47 -154 48 -99 1 -146 5 -155 14 -6 6 -20 12 -29 12
-10 0 -24 6 -31 13 -7 7 -30 25 -50 41 -20 15 -61 62 -89 104 l-53 77 1 170
c1 187 9 219 72 279 70 67 -41 62 1347 60 932 -1 1258 -4 1266 -12z m829 -153
c19 -7 49 -23 67 -37 35 -25 76 -104 69 -131 -3 -10 -5 -7 -6 7 0 12 -5 22
-11 22 -5 0 -22 14 -37 30 -43 48 -85 70 -136 70 -64 0 -93 -13 -143 -67 l-44
-46 0 31 c0 24 10 42 38 70 56 56 131 75 203 51z m36 -121 c13 -12 23 -27 23
-34 0 -6 7 -17 15 -24 22 -18 18 -55 -9 -98 -33 -52 -45 -60 -96 -62 -85 -3
-100 0 -123 26 -53 61 -53 129 1 187 23 24 32 27 96 27 58 0 74 -4 93 -22z
m-1481 -70 c3 -4 6 -201 6 -436 l0 -427 -653 -3 c-360 -1 -657 2 -662 7 -14
14 -9 854 5 862 17 11 1297 8 1304 -3z m-1997 -801 c66 -61 66 -77 3 -77 -26
0 -53 5 -60 12 -14 14 -17 121 -3 116 5 -1 32 -25 60 -51z m2695 -29 c-5 -28
-13 -39 -33 -46 -59 -20 -66 7 -15 61 41 43 56 39 48 -15z" />
		<path d="M6765 6260 l-200 -5 -3 -28 -3 -27 712 2 c661 3 713 4 723 20 25 40
9 41 -521 42 -279 1 -598 -1 -708 -4z" />
		<path d="M7724 5996 c-3 -14 -3 -30 1 -35 3 -6 1 -19 -4 -29 -12 -23 3 -42 36
-42 33 0 49 35 29 65 -13 20 -13 25 -1 35 20 17 9 30 -25 30 -23 0 -31 -5 -36
-24z" />
		<path d="M7817 6013 c-2 -5 -2 -32 1 -60 3 -37 8 -53 18 -53 9 0 14 11 14 28
0 16 7 37 15 48 23 30 18 44 -14 44 -17 0 -32 -3 -34 -7z" />
		<path d="M7917 6014 c-4 -4 -7 -17 -7 -30 0 -12 -7 -24 -15 -28 -8 -3 -15 -17
-15 -31 0 -23 4 -25 45 -25 l45 0 0 45 c0 27 -5 45 -11 45 -7 0 -17 7 -23 16
-6 8 -15 12 -19 8z" />
		<path d="M7975 6010 c-3 -6 1 -17 9 -26 9 -8 16 -31 16 -50 0 -29 3 -35 18
-32 11 3 16 12 14 27 -1 13 5 34 13 47 8 13 15 28 15 34 0 13 -77 13 -85 0z" />
		<path d="M7850 5731 c0 -68 6 -78 35 -51 20 19 24 19 90 5 38 -8 72 -12 77 -9
4 3 8 19 8 35 0 17 6 32 15 35 18 7 20 44 2 44 -7 0 -18 -5 -23 -10 -8 -8 -20
-7 -39 0 -25 10 -31 8 -46 -11 -16 -21 -17 -21 -27 -4 -7 13 -23 20 -51 21
l-41 2 0 -57z" />
		<path d="M7748 5573 c-14 -4 -18 -15 -18 -52 0 -26 5 -52 12 -59 15 -15 74
-16 83 -1 4 6 13 8 21 5 8 -3 24 0 34 6 16 10 22 9 33 -6 22 -30 55 -13 59 31
4 53 28 56 28 4 0 -44 2 -46 31 -31 15 9 21 7 25 -5 9 -23 34 -18 34 7 0 12
-7 38 -16 59 l-17 37 -89 1 c-49 1 -98 -4 -109 -10 -13 -6 -25 -7 -32 -1 -16
12 -58 20 -79 15z m192 -49 c0 -8 -7 -14 -15 -14 -15 0 -21 21 -9 33 10 9 24
-2 24 -19z m-120 -4 c0 -24 -26 -38 -42 -22 -8 8 -8 15 2 27 18 21 40 19 40
-5z" />
		<path d="M7787 5353 c-12 -11 -8 -88 5 -101 17 -17 49 -15 64 6 13 16 15 16
25 0 12 -22 48 -24 55 -3 4 8 12 15 19 15 7 0 15 -7 19 -15 8 -22 31 -18 76
13 33 22 39 32 37 57 -2 28 -5 30 -42 30 -34 0 -40 -3 -43 -22 -5 -32 -32 -30
-32 2 0 29 -17 33 -35 8 -13 -17 -14 -17 -32 0 -26 23 -40 22 -54 -5 l-12 -23
-10 23 c-10 22 -27 28 -40 15z" />
		<path d="M7617 5143 c-4 -3 -7 -30 -7 -60 0 -53 12 -67 37 -42 8 8 13 8 17 0
11 -17 63 -13 70 5 6 16 8 16 24 0 21 -18 122 -23 122 -6 0 6 7 10 15 10 8 0
15 -4 15 -10 0 -6 26 -10 58 -10 44 0 63 5 75 18 22 24 21 51 -2 80 -20 22
-71 31 -71 11 0 -7 -11 -8 -30 -4 -19 4 -30 3 -30 -4 0 -17 -27 -13 -34 4 -7
20 -41 19 -73 -2 -24 -16 -26 -16 -39 2 -16 22 -31 12 -36 -25 -4 -35 -20 -31
-30 8 -8 28 -13 32 -42 32 -18 0 -36 -3 -39 -7z m247 -29 c20 -8 21 -54 2 -54
-40 0 -65 40 -33 53 6 3 13 6 14 6 1 1 8 -2 17 -5z m143 -38 c-4 -9 -11 -16
-17 -16 -15 0 -24 26 -16 47 6 15 8 15 23 1 9 -9 13 -24 10 -32z" />
		<path d="M7155 4199 c-4 -12 -3 -25 2 -30 7 -7 654 -15 781 -10 7 1 12 14 12
31 l0 30 -394 0 c-392 0 -395 0 -401 -21z" />
		<path d="M7142 4021 c-8 -5 -12 -17 -10 -27 3 -18 21 -19 405 -22 350 -2 402
0 407 13 3 8 3 22 0 30 -5 13 -59 15 -398 15 -215 0 -397 -4 -404 -9z" />
		<path d="M7142 3848 c-18 -18 -15 -46 6 -52 31 -10 792 -4 798 6 3 5 3 20 0
34 l-6 24 -393 0 c-292 0 -396 -3 -405 -12z" />
		<path d="M6587 3309 c-40 -24 -57 -86 -56 -209 0 -63 4 -135 10 -160 5 -25 12
-65 15 -90 3 -25 12 -59 20 -77 8 -17 14 -39 14 -48 0 -20 32 -117 41 -125 3
-3 18 -30 32 -60 36 -74 69 -124 137 -205 77 -90 256 -238 304 -251 14 -3 26
-10 26 -15 0 -5 9 -9 19 -9 11 0 26 -7 35 -15 40 -41 94 1 144 110 13 28 27
58 33 67 5 10 9 30 9 46 0 28 -9 34 -90 70 -133 60 -294 223 -351 357 -7 17
-18 37 -24 45 -6 8 -20 42 -30 75 -9 33 -24 76 -32 96 -11 27 -14 69 -10 175
2 76 7 148 11 160 5 13 1 27 -11 41 -15 18 -33 22 -123 27 -69 4 -111 2 -123
-5z m177 -59 c60 -23 14 -64 -61 -55 -57 7 -84 -5 -64 -29 9 -10 29 -16 56
-16 63 0 75 -7 75 -45 0 -42 -8 -47 -55 -33 -34 11 -39 10 -56 -11 -27 -33
-14 -43 50 -39 l56 3 3 -32 c3 -28 0 -32 -30 -38 -46 -9 -78 -26 -78 -42 0
-14 1 -14 80 -17 52 -1 55 -3 58 -28 4 -30 -28 -58 -65 -58 -18 0 -23 -6 -23
-24 0 -33 12 -39 46 -21 16 8 37 15 47 15 18 0 59 -57 54 -75 -2 -5 -24 -20
-50 -33 -32 -16 -47 -29 -47 -43 0 -31 25 -33 67 -5 46 32 57 32 77 4 26 -37
20 -66 -20 -90 -25 -15 -34 -26 -32 -42 5 -31 30 -30 68 4 18 16 37 30 41 30
4 0 19 -14 33 -30 30 -36 26 -55 -21 -95 -36 -29 -43 -62 -16 -72 11 -5 28 7
55 40 l39 46 35 -21 c41 -24 43 -45 8 -83 -26 -28 -29 -65 -7 -72 7 -3 27 16
45 41 32 46 54 56 76 34 16 -16 15 -38 -3 -58 -8 -9 -18 -31 -21 -48 -6 -27
-4 -32 13 -32 13 0 26 15 41 45 15 32 28 45 42 45 30 0 33 -21 12 -66 -48
-102 -72 -126 -102 -99 -9 8 -24 15 -32 15 -9 0 -21 7 -28 15 -7 8 -18 15 -25
15 -7 0 -32 16 -55 35 -23 19 -45 35 -48 35 -14 0 -141 128 -183 185 -55 73
-109 154 -109 162 0 3 -11 30 -25 59 -14 30 -28 68 -32 86 -3 18 -12 44 -20
58 -7 14 -13 41 -13 60 0 20 -6 42 -12 48 -9 9 -14 64 -16 181 -5 199 -4 201
88 201 32 0 70 -4 84 -10z" />
		<path d="M6575 1901 c-3 -5 -18 -12 -34 -16 -29 -6 -131 -98 -131 -117 0 -6
-7 -25 -16 -44 -18 -38 -15 -129 7 -184 19 -47 66 -98 109 -118 97 -43 153
-52 202 -33 13 5 30 12 38 15 69 28 125 96 154 189 18 56 17 60 0 120 -15 48
-30 73 -70 113 -30 31 -63 54 -82 59 -17 3 -34 11 -37 16 -4 5 -35 9 -70 9
-35 0 -66 -4 -70 -9z m159 -71 c96 -48 146 -141 117 -215 -7 -16 -10 -12 -15
22 -13 71 -108 153 -178 153 -49 0 -128 -50 -163 -102 -31 -46 -31 -54 -3 -69
19 -10 24 -8 40 12 72 94 78 99 118 99 48 0 103 -31 130 -74 25 -42 25 -69 0
-122 -30 -61 -52 -77 -116 -82 -52 -4 -58 -3 -80 24 -13 16 -23 37 -24 47 0
28 -29 32 -55 7 l-24 -22 -20 41 c-14 27 -21 59 -21 98 1 72 28 121 96 169 40
29 56 34 104 34 36 0 70 -7 94 -20z" />
		<path d="M7517 1704 c-59 -71 -311 -320 -407 -403 l-94 -81 -617 0 c-614 0
-618 0 -624 -20 -16 -52 -67 -50 1131 -48 825 1 1119 5 1131 13 13 10 13 16 4
34 l-13 23 -456 -3 c-314 -2 -457 1 -459 8 -2 6 13 21 34 34 21 13 129 113
241 223 170 168 202 205 200 226 -5 40 -35 37 -71 -6z" />
		<path d="M3000 6305 c-7 -8 -18 -15 -24 -15 -23 0 -70 -61 -92 -118 l-21 -57
-499 -3 c-274 -2 -503 -7 -509 -11 -5 -5 -35 -12 -65 -16 -124 -17 -234 -98
-292 -216 -36 -75 -68 -172 -68 -211 -1 -18 -7 -51 -15 -73 -8 -22 -15 -51
-15 -65 0 -14 -6 -70 -14 -125 -26 -179 -37 -278 -46 -405 -5 -69 -13 -183
-19 -254 -16 -189 -14 -863 4 -1091 8 -104 15 -216 15 -248 0 -32 4 -67 10
-77 5 -10 12 -51 15 -92 7 -88 32 -250 48 -298 6 -19 14 -55 18 -80 20 -133
95 -265 186 -331 90 -64 144 -82 323 -108 114 -16 227 -21 735 -28 659 -9 957
-8 2030 6 448 6 743 14 780 21 180 34 247 68 319 162 33 44 66 107 66 126 0 8
6 26 14 40 19 38 38 116 46 193 4 36 10 70 13 76 14 22 39 233 47 388 5 88 14
185 20 215 14 71 8 1167 -8 1325 -6 61 -13 164 -16 230 -3 66 -10 143 -15 170
-5 28 -10 71 -10 97 -1 26 -8 73 -16 105 -8 31 -15 73 -15 93 0 107 -66 285
-131 352 -36 38 -144 98 -174 98 -8 0 -31 7 -50 15 -29 12 -134 15 -610 17
-317 1 -579 4 -584 7 -4 4 -16 29 -25 56 -17 54 -65 115 -89 115 -8 0 -20 7
-27 15 -11 13 -92 15 -620 15 -528 0 -609 -2 -620 -15z m1244 -64 c48 -32 66
-69 66 -139 0 -39 -7 -78 -17 -99 -16 -34 -16 -36 2 -49 29 -21 44 -17 51 14
3 15 12 43 19 62 l13 35 473 -2 c489 -2 722 -12 742 -32 6 -6 17 -11 25 -11 7
0 37 -11 66 -24 54 -25 126 -98 126 -128 0 -7 4 -18 9 -23 20 -20 56 -198 72
-360 5 -55 14 -114 20 -131 8 -28 14 -102 39 -474 12 -185 12 -1158 0 -1310
-5 -63 -14 -178 -20 -255 -6 -77 -15 -144 -20 -149 -6 -6 -10 -33 -10 -60 0
-28 -5 -69 -11 -91 -6 -22 -14 -67 -19 -100 -11 -79 -65 -237 -98 -290 -36
-56 -88 -100 -143 -120 -42 -15 -68 -21 -224 -44 -107 -16 -734 -25 -1780 -25
-1080 -1 -1556 8 -1657 30 -37 7 -80 14 -96 14 -44 0 -142 34 -200 70 -60 36
-104 89 -133 157 -11 26 -27 62 -35 80 -8 17 -14 46 -14 65 0 19 -4 38 -9 43
-5 6 -13 35 -19 65 -6 30 -15 73 -21 95 -6 22 -11 71 -11 108 0 38 -5 77 -10
87 -10 19 -23 154 -40 430 -11 183 -11 913 0 1085 20 295 30 415 40 440 5 14
10 59 10 98 1 40 5 92 11 117 11 48 31 149 47 242 6 31 15 64 21 75 5 10 19
46 31 80 28 80 87 147 156 179 29 13 60 24 69 24 9 0 26 5 38 12 27 14 335 27
752 30 l310 3 6 -46 c9 -60 26 -91 47 -87 15 3 17 16 13 110 -3 96 -1 110 19
142 12 20 33 45 47 56 25 20 39 20 622 20 567 0 597 -1 625 -19z" />
		<path d="M2780 5809 c-329 -9 -609 -26 -624 -38 -6 -5 -56 -13 -111 -17 -83
-6 -109 -12 -155 -37 -30 -16 -63 -36 -73 -45 -30 -27 -85 -128 -93 -169 -4
-21 -9 -42 -13 -48 -7 -12 -26 -128 -47 -285 -71 -543 -80 -1054 -29 -1595 18
-181 40 -354 54 -415 6 -25 11 -64 11 -87 0 -23 4 -44 9 -47 4 -3 11 -31 15
-63 19 -163 99 -275 222 -313 166 -51 1236 -92 2054 -78 407 7 988 31 1025 42
11 4 72 11 135 15 63 5 133 13 156 19 62 14 133 51 174 92 36 36 90 134 90
164 0 8 4 17 9 20 5 4 12 30 16 59 4 28 10 66 15 82 17 60 58 358 72 520 13
166 13 1095 0 1240 -20 211 -33 320 -43 355 -5 19 -14 69 -18 110 -11 89 -24
151 -53 244 -17 54 -33 81 -76 127 -30 33 -62 59 -71 59 -9 0 -25 6 -36 14
-11 7 -53 16 -93 20 -41 3 -82 11 -92 16 -27 15 -255 30 -570 40 -329 9 -1489
9 -1860 -1z m2135 -69 c55 -6 154 -15 219 -20 65 -6 127 -15 137 -20 10 -6 31
-10 48 -10 42 0 126 -45 156 -84 24 -31 65 -141 65 -175 0 -9 7 -34 15 -56 8
-22 14 -64 15 -93 0 -29 4 -60 9 -70 12 -23 50 -357 58 -512 16 -325 1 -1196
-22 -1269 -5 -18 -27 -170 -44 -307 -5 -40 -13 -80 -19 -90 -5 -11 -12 -38
-16 -62 -3 -24 -10 -51 -15 -60 -4 -9 -17 -35 -27 -57 -53 -109 -136 -151
-329 -166 -60 -4 -171 -12 -245 -18 -74 -6 -193 -13 -265 -15 -71 -3 -206 -9
-300 -15 -205 -12 -1216 -12 -1440 0 -88 4 -272 13 -410 18 -137 6 -265 13
-284 16 -18 4 -80 10 -138 15 -58 4 -110 13 -116 19 -6 6 -17 11 -23 11 -22 0
-81 44 -99 75 -38 61 -52 112 -81 290 -27 170 -44 290 -54 385 -6 52 -15 133
-21 180 -17 128 -24 900 -10 1056 24 266 55 550 65 589 3 12 10 55 16 95 6 41
14 78 19 84 5 6 11 27 15 47 3 20 22 55 42 77 66 78 167 107 413 119 70 3 135
10 146 16 43 23 2288 29 2520 7z" />
		<path d="M6362 4418 c-9 -9 -12 -103 -12 -359 l0 -348 22 -15 c28 -20 65 -20
98 -1 14 8 38 14 53 15 42 0 138 64 179 118 50 66 66 101 76 165 15 98 -1 171
-64 279 -26 44 -81 89 -150 122 -58 29 -85 36 -131 36 -33 0 -64 -5 -71 -12z
m173 -87 c69 -34 100 -64 144 -139 28 -47 31 -62 31 -131 0 -162 -85 -260
-257 -296 -24 -5 -33 -3 -34 7 0 15 0 569 0 581 2 16 60 5 116 -22z" />
		<path d="M577 4413 c-12 -3 -17 -12 -15 -26 3 -21 8 -22 138 -25 143 -2 173 5
154 35 -10 16 -28 18 -135 19 -68 1 -132 0 -142 -3z" />
		<path d="M563 4215 c-11 -31 12 -36 153 -33 131 3 139 4 139 23 0 19 -8 20
-143 23 -123 2 -143 0 -149 -13z" />
		<path d="M582 4042 c-19 -3 -23 -9 -20 -30 l3 -27 142 -3 c137 -2 142 -2 148
19 12 37 -9 44 -133 44 -64 0 -127 -1 -140 -3z" />
		<path d="M572 3848 c-17 -17 -15 -45 4 -52 9 -3 69 -6 134 -6 130 0 150 4 150
29 0 35 -21 41 -150 41 -85 0 -130 -4 -138 -12z" />
		<path d="M834 2424 c-23 -24 -34 -45 -34 -65 0 -16 3 -29 8 -29 4 0 14 -13 23
-29 32 -55 112 -49 149 11 28 46 25 71 -14 112 -46 49 -86 49 -132 0z m100
-37 c16 -11 17 -17 7 -36 -10 -17 -20 -21 -44 -19 -38 4 -49 34 -21 55 23 16
35 16 58 0z" />
		<path d="M7570 3213 c-48 -32 -71 -58 -91 -102 -19 -43 -19 -46 -2 -90 19 -53
44 -81 92 -104 44 -22 68 -21 118 3 49 23 74 53 92 108 12 35 11 46 -4 86 -18
47 -64 96 -91 96 -8 0 -14 5 -14 10 0 16 -73 11 -100 -7z m125 -84 c31 -35 36
-46 31 -73 -7 -37 -69 -96 -101 -96 -46 0 -109 78 -97 122 2 11 19 35 37 54
46 48 81 46 130 -7z" />
		<path d="M3050 1471 c-11 -21 -14 -509 -4 -573 l7 -38 87 0 c83 0 87 1 98 25
16 34 17 558 2 586 -9 16 -22 19 -95 19 -73 0 -86 -3 -95 -19z m131 -43 c12
-11 13 -55 11 -259 -3 -270 -2 -264 -62 -249 l-25 6 -3 243 c-2 171 1 248 9
257 14 17 51 18 70 2z" />
		<path d="M3416 1482 c-11 -18 -8 -579 3 -601 10 -19 20 -21 90 -21 118 0 112
-20 109 331 l-3 294 -97 3 c-53 1 -99 -1 -102 -6z m137 -51 c4 0 6 -115 5
-253 l-3 -253 -42 -3 -43 -3 0 254 c0 139 3 257 6 260 6 5 31 5 77 -2z" />
		<path d="M3795 1479 c-4 -6 -9 -63 -11 -127 -1 -64 -6 -191 -9 -282 -8 -207
-7 -209 102 -212 54 -2 77 2 88 13 13 13 16 60 16 306 1 160 -2 296 -6 302 -8
15 -172 15 -180 0z m125 -58 c3 -3 3 -116 0 -251 l-5 -244 -32 -7 c-18 -3 -36
-2 -42 4 -16 16 -15 489 0 504 12 12 69 7 79 -6z" />
	</g>
</svg>