<!-- https://simpleicons.org/ -->
<svg role="img" viewBox="0 0 173 173" xmlns="http://www.w3.org/2000/svg" xmlns:svg="http://www.w3.org/2000/svg" version="1.1">
  <g class="layer" display="inline">
    <title>SSMS</title>
    <path d="m150.85,82.09c2.94,1.24 4.59,3.1 6.77,5.41c2.88,3.16 2.88,3.16 6.38,5.5c-3.35,7.99 -11.86,14.04 -18.34,19.54c-1.79,1.51 -1.79,1.51 -3.66,3.71c-2.52,2.2 -5.02,2.97 -8.2,3.94c-2.17,0.78 -2.17,0.78 -3.8,3.81c-0.31,0.99 -0.62,1.98 -0.94,3c-1.54,4.35 -1.54,4.35 -4.06,6c-2.13,-0.13 -2.13,-0.13 -4,-1c-0.33,-0.99 -0.66,-1.98 -1,-3c-0.99,0 -1.98,0 -3,0c-0.26,0.59 -0.52,1.18 -0.79,1.79c-1.28,2.34 -2.58,3.73 -4.55,5.52c-0.65,0.6 -1.3,1.2 -1.97,1.82c-1.03,0.92 -1.03,0.92 -2.07,1.87c-1.34,1.22 -2.68,2.45 -4.02,3.68c-0.63,0.58 -1.26,1.15 -1.9,1.75c-3.99,3.64 -3.99,3.64 -7.08,8c-3.44,5.43 -8.95,8.78 -14.62,11.57c-0.99,-0.33 -1.98,-0.66 -3,-1c1.44,-3.02 3.09,-5.78 4.94,-8.57c0.5,-0.76 1,-1.53 1.52,-2.31c2.07,-2.86 3.45,-4.75 6.84,-5.92c3.24,-1.45 5.08,-3.24 7.56,-5.77c0.89,-0.9 1.77,-1.8 2.69,-2.72c0.91,-0.94 1.82,-1.87 2.76,-2.84c0.94,-0.95 1.88,-1.91 2.82,-2.86c2.3,-2.33 4.59,-4.67 6.87,-7.01c-0.31,-0.6 -0.62,-1.2 -0.94,-1.82c-1.06,-2.18 -1.06,-2.18 -2.06,-5.18c3.55,-3.14 6.53,-4.55 11,-6c2.59,-1.83 3.09,-3.23 4.25,-6.25c1.79,-4.5 4.98,-7.77 8.75,-10.75c0.66,0 1.32,0 2,0c0,-0.66 0,-1.32 0,-2c1.57,-1.55 1.57,-1.55 3.69,-3.32c2.52,-2.12 4.86,-4.22 7.06,-6.68c2.25,-2 2.25,-2 4.1,-1.91z" fill="currentColor" id="svg_5"/>
    <path d="m89.63,83.94c7.15,-0.38 12.02,0.56 17.75,5.25c4.22,5.15 5.56,10.14 5.94,16.64c0.35,2.36 1.15,4.04 2.31,6.11c-0.55,0.47 -1.11,0.94 -1.68,1.43c-0.72,0.62 -1.45,1.24 -2.19,1.88c-0.72,0.62 -1.44,1.23 -2.18,1.87c-2.14,1.86 -2.14,1.86 -3.95,4.82c1.32,0.66 2.64,1.32 4,2c0,0.99 0,1.98 0,3c-0.99,0 -1.98,0 -3,0c-0.73,-0.81 -1.45,-1.61 -2.2,-2.44c-3.46,-3.16 -6.14,-3.3 -10.61,-3.5c-6.82,-0.58 -11.58,-1.78 -16.19,-7.06c-3.67,-5.05 -3.32,-10 -3,-16c1.11,0.94 2.21,1.87 3.31,2.81c0.62,0.52 1.23,1.05 1.87,1.58c1.82,1.61 1.82,1.61 3.16,3.33c2.59,2 4.69,1.34 7.85,0.97c1.63,-0.18 1.63,-0.18 3.29,-0.37c0.83,-0.1 1.66,-0.21 2.52,-0.32c0.87,-4.08 1.4,-7.84 1,-12c-1.82,-2.66 -3.72,-4.45 -6.21,-6.48c-0.59,-0.5 -1.18,-1 -1.79,-1.52c0,-0.66 0,-1.32 0,-2z" fill="currentColor" id="svg_6"/>
    <path d="m133,128c6.34,4.46 11.92,9.49 17.44,14.94c0.81,0.77 1.63,1.54 2.46,2.34c6.5,6.41 6.5,6.41 7.25,10.61c-0.19,3.95 -1.35,5.39 -4.15,8.11c-3.26,1.63 -5.38,1.47 -9,1c-3.01,-1.99 -5.47,-4.44 -8,-7c-0.88,-0.88 -0.88,-0.88 -1.78,-1.78c-1.15,-1.15 -2.3,-2.31 -3.44,-3.47c-2.49,-2.45 -5.14,-4.7 -7.78,-6.97c-3.14,-2.79 -6.07,-5.77 -9,-8.78c0.33,-0.99 0.66,-1.98 1,-3c0.87,0.5 0.87,0.5 1.75,1c2.45,1.27 2.45,1.27 6.25,1c1.71,-1.63 3.38,-3.29 5,-5c0.66,0 1.32,0 2,0c0,-0.99 0,-1.98 0,-3z" fill="currentColor" id="svg_7"/>
    <path d="m26,162c1.98,0 3.96,0 6,0c0,1.98 0,3.96 0,6c-1.98,0 -3.96,0 -6,0c0,-1.98 0,-3.96 0,-6z" fill="currentColor" id="svg_12"/>
    <path d="m6,162c1.98,0 3.96,0 6,0c0,1.98 0,3.96 0,6c-1.98,0 -3.96,0 -6,0c0,-1.98 0,-3.96 0,-6z" fill="currentColor" id="svg_13"/>
    <path d="m36,162c1.98,0 3.96,0 6,0c0,1.98 0,3.96 0,6c-1.98,0 -3.96,0 -6,0c0,-1.98 0,-3.96 0,-6z" fill="currentColor" id="svg_14"/>
    <path d="m16,162c1.98,0 3.96,0 6,0c0,1.98 0,3.96 0,6c-1.98,0 -3.96,0 -6,0c0,-1.98 0,-3.96 0,-6z" fill="currentColor" id="svg_15"/>
    <path d="m132,7c1.98,0 3.96,0 6,0c0,1.65 0,3.3 0,5c-1.98,0 -3.96,0 -6,0c0,-1.65 0,-3.3 0,-5z" fill="currentColor" id="svg_17"/>
    <path d="m142,7c1.98,0 3.96,0 6,0c0,1.65 0,3.3 0,5c-1.98,0 -3.96,0 -6,0c0,-1.65 0,-3.3 0,-5z" fill="currentColor8" id="svg_18" transform="matrix(1 0 0 1 0 0)"/>
    <path d="m6,152c1.65,0 3.3,0 5,0c0,1.65 0,3.3 0,5c-1.65,0 -3.3,0 -5,0c0,-1.65 0,-3.3 0,-5z" fill="currentColor" id="svg_19"/>
    <path d="m6,142c1.65,0 3.3,0 5,0c0,1.65 0,3.3 0,5c-1.65,0 -3.3,0 -5,0c0,-1.65 0,-3.3 0,-5z" fill="currentColor" id="svg_20"/>
    <path d="m6,132c1.65,0 3.3,0 5,0c0,1.65 0,3.3 0,5c-1.65,0 -3.3,0 -5,0c0,-1.65 0,-3.3 0,-5z" fill="currentColor" id="svg_21"/>
    <path d="m163,37c1.65,0 3.3,0 5,0c0,1.65 0,3.3 0,5c-1.65,0 -3.3,0 -5,0c0,-1.65 0,-3.3 0,-5z" fill="currentColorF" id="svg_22"/>
    <path d="m163,27c1.65,0 3.3,0 5,0c0,1.65 0,3.3 0,5c-1.65,0 -3.3,0 -5,0c0,-1.65 0,-3.3 0,-5z" fill="currentColorF" id="svg_23"/>
    <path d="m163,17c1.65,0 3.3,0 5,0c0,1.65 0,3.3 0,5c-1.65,0 -3.3,0 -5,0c0,-1.65 0,-3.3 0,-5z" fill="currentColor" id="svg_24"/>
    <path d="m163,7c1.65,0 3.3,0 5,0c0,1.65 0,3.3 0,5c-1.65,0 -3.3,0 -5,0c0,-1.65 0,-3.3 0,-5z" fill="currentColor" id="svg_25"/>
    <path d="m118,134c1.32,0.66 2.64,1.32 4,2c-0.33,1.32 -0.66,2.64 -1,4c-1.32,-0.99 -2.64,-1.98 -4,-3c0.33,-0.99 0.66,-1.98 1,-3z" fill="currentColor" id="svg_29"/>
    <path d="m152.21,7.1c1.98,0 3.96,0 6,0c0,1.65 0,3.3 0,5c-1.98,0 -3.96,0 -6,0c0,-1.65 0,-3.3 0,-5z" fill="currentColor" id="svg_1"/>
    <g id="svg_2">
      <path d="m67.06,7.63c0.99,0 0.99,0 2,0c9.76,0.04 18.86,0.46 28.25,3.31c0.8,0.23 1.59,0.46 2.41,0.69c5.97,1.96 11.1,5.08 14.59,10.31c0.24,3.13 0.24,3.13 0.23,7.04c0,0.72 0,1.43 0,2.16c0,2.36 -0.02,4.71 -0.03,7.06c-0.01,1.64 -0.01,3.27 -0.01,4.9c-0.01,4.3 -0.03,8.59 -0.05,12.89c-0.02,4.38 -0.03,8.77 -0.04,13.15c-0.02,8.6 1.26,28.03 0.31,27.26c-0.94,-0.77 -2.13,-2.91 -2.73,-3.7c-1.93,-2.31 -2.94,-3.76 -5.39,-5.42c-2.17,-1.83 -3.1,-1.61 -3.49,-3.55c-0.39,-1.94 -0.59,-7.46 -0.48,-10.22c0.01,-0.99 0.02,-1.98 0.03,-3c0.04,-3.15 0.12,-6.29 0.21,-9.44c0.04,-2.14 0.07,-4.28 0.1,-6.42c0.08,-5.24 0.19,-10.47 0.34,-15.71c-1.04,0.36 -2.08,0.72 -3.15,1.1c-1.41,0.47 -2.82,0.93 -4.22,1.4c-0.68,0.24 -1.36,0.48 -2.06,0.73c-6.07,1.98 -9.66,1.77 -16.57,1.77c0,17.16 0,34.32 0,52c-1.32,-0.66 -2.64,-1.32 -4,-2c-1.75,5.25 -2.27,11.29 0.12,16.4c0.88,1.34 1.35,2.61 2.47,4.13l1.27,1.46c0.31,0.75 1.66,1.81 2.54,2.78c0.88,0.98 4.83,2.79 7.59,4.23c0,0.33 0,0.66 0,1c-6.32,1.48 -12.67,1.19 -19.12,1.19c-1.91,0.02 -1.91,0.02 -3.85,0.04c-14.42,0.02 -30.39,-1.68 -41.16,-12.33c-2.44,-3.77 -2.45,-6.99 -2.42,-11.34c-0.01,-1.26 -0.01,-1.26 -0.03,-2.54c-0.03,-2.76 -0.03,-5.53 -0.02,-8.29c-0.01,-1.93 -0.02,-3.85 -0.03,-5.78c-0.01,-4.04 -0.01,-8.07 0,-12.11c0.01,-5.16 -0.02,-10.33 -0.07,-15.49c-0.03,-3.98 -0.03,-7.96 -0.03,-11.94c0,-1.9 -0.01,-3.8 -0.03,-5.71c-0.02,-2.66 -0.01,-5.33 0.02,-8c-0.03,-1.17 -0.03,-1.17 -0.05,-2.36c0.1,-5.37 1.61,-8.08 5.3,-11.97c1.72,-1.58 3.34,-2.73 5.49,-3.68c0.68,-0.3 1.37,-0.61 2.07,-0.92c0.96,-0.38 0.96,-0.38 1.93,-0.77c1.39,-0.55 1.39,-0.55 2.81,-1.12c9.64,-2.65 18.97,-3.23 28.94,-3.19l0.01,0z" fill="currentColor" id="svg_8" transform="matrix(1 0 0 1 0 0)"/>
    </g>
    <path d="m107.17,22.04c0.88,2.75 0.88,2.75 1,5c-11.31,10.82 -27.45,10.38 -42.19,10.5c-0.67,0.01 -1.34,0.02 -2.03,0.03c-12.31,0.15 -24.61,-1.03 -34.78,-8.53c-2,-2 -2,-2 -2.13,-4.31c2.05,-4.9 6.66,-6.64 11.36,-8.64c18.13,-6.24 53.59,-7.23 68.77,5.95z" fill="currentColor" id="svg_3"/>
  </g>
</svg>